<svg width="1704" height="923" viewBox="0 0 1704 923" fill="none" xmlns="http://www.w3.org/2000/svg">
<path d="M109.842 85.1778C183.791 83.7721 262.468 85.0147 336.746 85.0163L768.646 85.0738L768.623 573.427C755.23 568.779 743.002 564.984 728.823 563.292C607.95 548.866 500.783 662.908 516.095 782.344C520.674 818.059 532.707 844.431 554.884 873.086L444.521 873.203C429.507 836.64 422.367 797.325 423.564 757.817C425.771 681.389 462.728 604.395 518.256 552.23C573.414 500.59 646.606 472.629 722.134 474.343L722.117 419.339L722.223 378.897C712.788 378.812 703.352 378.917 693.92 379.211L693.948 164.695L194.452 164.658L194.335 832.379L326.622 832.354C328.318 845.829 331.776 859.878 334.963 873.103C260.518 873.985 184.323 873.161 109.733 873.136L109.729 353.368C109.729 264.647 108.676 173.737 109.842 85.1778Z" fill="black"></path>
<path d="M204.257 174.345C261.359 173.643 319.458 174.228 376.667 174.237L684.129 174.179C684.627 208.532 683.933 245.477 684.205 279.765C684.282 289.366 684.903 377.46 683.137 379.978C679.145 378.056 671.765 363.217 669.134 358.462L669.138 190.221C649.711 189.613 626.301 190.23 606.625 190.229L478.764 190.247C393.36 190.275 304.793 188.947 219.68 190.373L219.695 809.794C249.36 809.905 279.023 809.861 308.687 809.664C299.859 806.555 257.765 792.645 252.788 788.348C249.162 781.33 252.36 740.099 253.208 730.324C273.587 725.956 304.362 722.122 325.692 718.768C327.454 707.935 329.993 695.762 332.142 684.932C320.333 675.198 280.605 649.813 274.053 640.606C272.44 638.339 272.487 636.306 272.934 633.668C274.037 627.148 288.593 587.71 292.776 585.058C295.394 583.399 357.578 596.71 365.486 598.173C370.949 587.222 376.765 576.807 382.69 566.103C374.93 554.916 367.164 542.845 359.581 531.468C354.138 523.43 339.082 506.009 343.782 498.284C346.787 493.344 375.651 453.938 379.687 455.717C401.067 465.144 424.245 479.963 445.257 491.032C453.559 483.623 461.734 476.073 469.78 468.387C465.856 453.075 461.8 437.797 457.611 422.555C455.902 416.203 449.118 394.301 451.657 390.338C455.843 383.806 493.059 360.222 499.393 359.392C504.799 360.257 547.261 411.139 554.515 419.048C564.975 415.003 575.758 410.423 586.177 406.171C586.345 394.809 587.997 334.448 591.611 328.184C594.501 323.175 633.475 314.498 641.018 312.491C642.838 319.137 649.782 332.343 653.03 339L676.193 386.328C689.562 385.786 702.94 385.504 716.319 385.486L716.27 460.087C682.113 458.689 642.808 466.897 610.99 478.797C533.781 507.835 471.346 566.49 437.537 641.751C403.643 716.34 399.643 796.148 428.496 873.031L338.276 873.189C333.625 853.705 330.651 836.735 326.679 817.437L326.015 817.185L325.619 822.386C322.403 823.403 295.563 822.942 289.974 822.945L204.18 822.984C204.695 800.213 204.263 775.939 204.264 752.981L204.24 614.461L204.257 174.345Z" fill="black"></path>
<path d="M637.516 596.763C681.613 576.238 723.58 576.272 768.532 592.721C773.23 606.861 777.879 630.924 781.425 645.97C792.47 692.83 800.693 740.586 810.769 787.631C815.677 810.548 820.37 835.285 827.392 857.498C828.871 861.651 830.474 865.938 831.862 870.107L823.745 857.781L823.254 857.715C821.028 859.447 815.193 870.032 813.356 873.153L581.907 873.179C568.611 859.946 557.673 844.532 549.567 827.606C530.768 787.141 528.959 740.828 544.547 699.02C560.846 654.006 594.26 617.253 637.516 596.763ZM770.258 677.469C750.594 662.29 727.761 651.749 702.203 654.521C673.895 657.283 651.151 668.686 632.842 690.869C615.275 711.991 606.861 739.25 609.465 766.602C611.988 792.47 624.787 817.444 644.966 833.949C663.975 849.505 688.346 856.945 712.8 854.665C761.84 849.713 800.199 805.945 797.594 756.437C793.17 785.114 785.873 802.534 763.093 821.681C743.441 836.163 721.051 843.546 696.493 839.801C674.284 836.488 654.339 824.378 641.158 806.194C627.745 787.6 622.211 764.462 625.76 741.81C629.301 719.198 641.662 698.913 660.133 685.404C678.675 671.952 701.842 666.512 724.433 670.306C746.591 674.125 766.362 686.503 779.48 704.77C781.408 707.447 783.121 710.392 784.985 713.165C785.92 708.899 772.997 691.334 771.543 685.906C770.526 682.108 770.443 681.687 770.258 677.469Z" fill="black"></path>
<path d="M1303.02 301.282L1391.74 301.298C1384.32 307.702 1375.4 315.202 1369.64 323.053C1369.51 326.884 1369.43 330.718 1369.4 334.552L1369.38 455.784C1369.39 473.154 1368.51 497.778 1370.62 514.779C1371.34 520.661 1386.35 534.865 1391.41 539.957L1289.5 539.894C1291.01 538.668 1292.46 537.37 1293.85 536.003C1298.22 531.671 1308.55 520.913 1309.47 515.22C1311.57 502.279 1310.71 483.091 1310.71 469.786L1310.68 390.212L1310.55 352.023C1305.27 360.878 1295.95 381.427 1291.18 391.195L1246.86 482.707C1240.09 496.767 1229.89 519.745 1222.36 532.808C1213.25 516.191 1203.4 494.727 1194.72 477.439C1174.57 437.431 1154.65 397.308 1134.96 357.072C1137.33 392.877 1135.11 432.432 1136.31 468.649C1136.75 481.989 1135.11 502.565 1137.93 515.155C1139.19 520.804 1153.19 534.871 1157.88 539.903L1086.16 539.933C1088.23 538.091 1090.21 536.157 1092.11 534.14C1101.97 523.701 1106.88 518.747 1106.86 503.989C1106.76 447.719 1106.84 391.457 1106.74 335.186C1106.72 323.815 1103.29 320.812 1095.28 313.103C1091.25 309.196 1087.04 305.273 1082.95 301.423C1111.63 301.018 1141.01 301.321 1169.75 301.303C1176.28 315.421 1184.9 331.515 1192.08 345.597L1238.41 435.418L1303.02 301.282Z" fill="black"></path>
<path d="M802.625 301.428C887.971 300.277 975.8 301.302 1061.35 301.331C1054.11 307.731 1045.62 315.22 1039.5 322.657C1037.99 332.264 1038.7 367.265 1038.7 379.153L1038.73 495.928C1038.81 521.592 1041.77 521.465 1060.33 539.921C1027.22 540.082 994.104 540.072 960.998 539.891C962.379 538.669 963.727 537.404 965.025 536.095C970.441 530.651 977.173 523.992 979.735 516.606C983.679 505.246 981.616 430.848 981.591 413.231V335.085L886.614 335.101C886.323 390.906 886.356 446.713 886.714 502.518C886.997 522.599 894.161 526.067 908.48 540.015C874.775 539.517 840.711 540.35 806.883 539.869C808.33 538.586 809.719 537.236 811.043 535.827C814.838 531.765 825.763 519.505 826.089 514.579C827.799 488.758 827.02 455.882 826.73 430.196C826.338 395.451 827.769 360.224 826.822 326.317C822.341 318.807 809.501 307.687 802.625 301.428Z" fill="black"></path>
<path d="M1492.3 296.642C1526.55 292.273 1595.13 298.067 1610.89 334.652C1627.34 372.868 1607.15 396.912 1574.59 412.578C1579.86 414.144 1585.05 415.746 1589.99 417.988C1641.36 441.052 1634.76 508.69 1586.67 531.219C1531.1 557.252 1469.61 548.986 1415.54 523.533C1420.98 506.952 1428.38 486.577 1434.79 470.459C1437.7 474.199 1440.65 477.899 1443.67 481.559C1447.57 486.128 1450.39 489.076 1455.06 492.921C1473.14 507.926 1496.46 515.08 1519.84 512.791C1557.05 508.938 1578.57 472.497 1547.97 443.241C1535.37 431.2 1507.97 432.816 1491.13 435.188L1491.15 399.439C1496.88 399.883 1502.39 400.297 1508.15 400.293C1531.69 400.276 1554.55 387.481 1553.64 361.009C1553.41 351.785 1549.44 343.051 1542.65 336.811C1535.91 330.65 1527.59 327.771 1518.66 326.583C1483.17 321.866 1453.76 345.824 1431.12 370.402L1421.88 366.571C1424.52 350.943 1430.41 320.211 1431.47 305.213C1441.97 299.213 1478.98 297.581 1492.3 296.642Z" fill="black"></path>
<path d="M1055.66 582.644L1135.43 582.578C1152.9 597.875 1172.76 658.518 1180.83 681.666C1193.51 718.416 1205.69 755.336 1217.37 792.415C1223.96 813.907 1234.78 855.118 1245.38 872.596C1218.73 873.087 1190.29 872.854 1163.59 872.721C1156.12 859.129 1149.89 837.84 1144.84 822.93C1120.8 751.931 1106.1 676.835 1074.53 608.627C1070.51 599.944 1063.02 588.721 1055.66 582.644Z" fill="black"></path>
<path d="M896.113 582.541L976.304 582.453C1001.64 607.207 1044.66 765.369 1058.89 805.905C1065.59 824.972 1071.11 853.977 1083.1 872.679C1063.87 872.695 1021.14 873.936 1001.12 871.813C997.405 871.422 990.308 848.901 988.352 842.966C982.204 824.345 976.421 805.605 971.013 786.755C958.133 740.721 926.482 610.879 896.113 582.541Z" fill="black"></path>
<path d="M1217.18 582.831C1244.03 582.637 1270.87 582.604 1297.72 582.735C1316.25 601.84 1331.58 649.326 1340.74 675.303C1355.92 719.442 1370.38 763.824 1384.13 808.433C1389.27 824.914 1398.38 859.582 1406.96 872.408C1398.47 873.157 1385.73 872.791 1376.97 872.782L1325.61 872.774C1318.04 859.399 1310.94 835.804 1306.1 820.868C1285.87 758.455 1270.67 694.028 1247.15 632.717C1241.01 616.698 1230.78 593.626 1217.18 582.831Z" fill="black"></path>
<path d="M779.519 581.578C793.327 582.896 816.391 582.302 830.972 582.301C835.227 586.863 841.792 598.28 844.038 604.135C874.224 682.7 893.295 765.754 913.455 847.338C914.52 851.666 921.725 870.658 921.401 872.406L918.422 872.606L872.319 872.689C864.407 872.723 851.776 873.214 844.288 872.215C831.24 862.169 797.396 644.113 784.303 613.557C782.689 609.79 775.636 591.474 775.055 587.794C775.716 584.756 777.238 583.72 779.519 581.578Z" fill="black"></path>
<path d="M1379.31 586.827L1453.14 586.75C1483.56 617.863 1519.91 755.727 1535.36 802.585C1542.08 822.941 1547.86 853.879 1560.33 872.539C1536.47 873.346 1510.54 872.797 1486.48 872.872C1480.08 861.178 1474.79 843.783 1470.32 830.926C1444.89 757.758 1430.03 679.737 1396.86 609.513C1392.95 601.253 1386.18 592.735 1379.31 586.827Z" fill="black"></path>
<path d="M1201.42 583.305C1202.76 583.565 1204.08 583.895 1205.39 584.293C1243.64 595.96 1287.52 819.284 1313.71 867.392C1298.72 858.004 1296.79 857.63 1288.56 842.099C1285.1 842.074 1271.04 841.483 1269.1 843.298C1267 849.423 1259.48 869.198 1252.63 869.823C1246.47 866.094 1240.78 846.044 1238.64 838.87C1216.58 764.667 1193.93 687.613 1163.58 616.38C1167.96 616.306 1181.48 617.233 1184.43 616.038C1182.59 614.96 1181.38 614.519 1180.38 612.659C1184.72 601.663 1190.91 589.25 1201.42 583.305Z" fill="black"></path>
<path d="M1038.63 583.234C1040.66 583.173 1042.64 583.275 1044.57 583.937C1073.57 593.827 1117.57 767.166 1128.43 803.197C1134.82 824.429 1141.33 847.233 1151.16 867.166C1136.71 857.886 1134.55 857.711 1127.09 842.147L1107.21 842.264C1105.45 848.398 1097.34 870.853 1089.84 869.946C1080.81 863.129 1066.51 803.567 1061.86 789.236C1043.14 731.386 1026.25 672.829 1003.47 616.352C1007.18 616.271 1021.73 617.188 1023.82 615.792C1021.02 614.764 1021.36 615.378 1019.97 613.36C1023.25 602.094 1028.94 590.207 1038.63 583.234Z" fill="black"></path>
<path d="M1361.47 587.368C1371.21 587.303 1379.68 595.641 1383.92 603.772C1415.02 663.454 1428.48 731.724 1448.97 795.45C1456.65 819.309 1463.11 844.958 1474 867.063C1459.23 857.384 1458.26 857.209 1449.71 842.111C1445.87 842.111 1433.17 841.82 1430.21 842.744C1428.7 849.194 1421.33 868.378 1414.89 870.226C1405.47 866.039 1392.03 807.507 1387.54 793.862C1368.02 734.651 1350.64 674.098 1325.88 616.784C1329.94 616.843 1342.39 617.358 1345.59 616.367L1342.27 615.241L1341.8 613.821C1347.77 602.303 1350.2 594.99 1361.47 587.368Z" fill="black"></path>
<path d="M880.031 583.289C881.92 583.114 883.701 583.026 885.506 583.705C914.053 594.423 958.4 780.285 969.991 818.904C974.8 834.904 979.992 851.758 987.43 866.73C973.518 856.976 972.262 856.918 964.782 842.136L950.804 842.17C949.631 842.203 946.868 842.003 946.161 843.335C942.217 850.759 937.691 864.741 931.226 870.068L929.978 869.76C925.71 865.615 923.156 856.859 921.791 851.058C903.262 772.402 884.791 692.75 857.309 616.561C862.159 616.567 867.01 616.544 871.861 616.492C869.207 615.623 865.188 614.748 862.367 614.047C866.245 601.687 870.513 592.233 880.031 583.289Z" fill="black"></path>
<path d="M1514.36 590.047C1517.3 590.071 1519.69 590.435 1522.26 591.934C1556.73 612.013 1588.63 807.072 1601.24 853.372C1596.2 849.168 1594.36 847.221 1590.47 842.144L1581.09 842.261C1578.65 851.665 1575.55 859.148 1570.42 867.337L1568.39 869.784L1566.36 869.826C1558.28 865.082 1544.66 808.788 1540.75 795.572C1531.21 763.778 1521.25 732.107 1510.88 700.57C1502.06 673.915 1493.03 646.649 1481.36 621.106C1485.34 621.193 1495.78 621.863 1498.76 620.572L1496.23 618.407C1499.4 608.894 1506.13 596.061 1514.36 590.047Z" fill="black"></path>
<path d="M1529.48 588.649L1586.46 588.429C1594.31 588.417 1606.4 588.118 1613.81 588.86C1621.51 589.632 1623.99 617.261 1624.64 623.174C1629.57 668.434 1629.32 714.887 1626.94 760.301C1625.55 787.108 1623.9 816.228 1618.37 842.467C1617.09 846.845 1616.39 850.074 1612.54 852.762C1605.95 853.278 1606.24 846.312 1605.03 841.169C1603.83 836.125 1602.98 830.723 1601.99 825.595C1595.56 791.813 1588.51 758.152 1580.86 724.628C1573.21 691.051 1555.94 610.844 1529.48 588.649Z" fill="black"></path>
</svg>