<svg width="966" height="965" viewBox="0 0 966 965" fill="none" xmlns="http://www.w3.org/2000/svg">
<path d="M436.753 472.294C438.844 472.2 440.284 471.911 442.161 472.783C443.201 474.91 442.783 474.775 442.596 477.532C440.339 477.652 438.672 478.028 436.744 476.971C435.968 474.853 436.369 474.87 436.753 472.294Z" fill="#394A5A"></path>
<path d="M523.53 472.227C525.753 472.307 526.898 472.216 529.023 472.961C530.321 474.872 529.862 474.82 529.929 477.61C527.67 477.659 526.58 477.803 524.357 477.226C523.016 475.199 523.512 475.205 523.53 472.227Z" fill="#394A5A"></path>
<path d="M408.024 485.942C457.014 484.355 506.634 486.153 555.661 485.687C559.096 485.654 564.821 485.389 567.736 486.941L567.369 487.73C563.86 489.154 560.615 488.69 556.757 488.582C520.117 488.16 483.471 488.061 446.828 488.284C437.135 488.276 427.442 488.335 417.75 488.46C413.55 488.507 400.11 489.438 397.457 487.121C400.402 485.725 404.713 485.96 408.024 485.942Z" fill="white"></path>
<path d="M384.842 420.26C385.989 429.14 389.09 426.25 389.807 430.189C388.863 432.472 388.436 432.612 386.435 434.236C386.307 444.387 386.326 454.54 386.493 464.69C393.925 464.671 398.288 468.753 406.654 467.067C412.562 465.876 442.426 468.545 446.522 466.299L446.259 465.177C441.196 461.749 446.265 442.471 443.628 437.957L442.791 438.09C441.041 442.205 441.602 458.945 441.616 464.579L432.681 464.578C432.998 455.688 432.867 446.801 432.808 437.905L428.475 431.11C439.514 430.536 455.692 431.095 467.141 431.13C466.894 441.202 466.847 451.277 466.998 461.352C468.057 462.861 468.888 464.32 469.831 465.899L478.942 465.98C478.973 460.508 477.816 452.862 482.604 449.01C488.647 449.326 487.606 462.042 487.521 465.999L496.815 466C501.512 457.995 499.804 441.289 499.657 431.158C511.505 431.192 526.39 430.361 537.65 431.138L533.597 438.001L533.566 464.433L524.804 464.419C524.847 459.949 525.374 440.996 524.198 438.216L522.937 438.044C521.443 439.71 522.704 459.479 522.324 463.896C521.51 464.486 520.708 465.087 519.912 465.697L520.249 466.503C534.308 468.267 554.195 466.378 568.896 467.122C570.642 467.211 576.195 464.861 579.905 464.591L579.875 434.483C577.567 432.715 576.617 432.038 576.531 429.022C577.762 426.704 578.73 426.433 581.094 425.012L583.812 425.368C586.855 426.44 587.951 426.482 588.367 429.84C587.547 432.411 587.106 432.583 585.036 434.504C584.908 444.453 584.951 454.402 585.165 464.349C588.367 464.818 590.713 464.965 593.688 466.256C593.976 467.358 593.958 467.609 593.934 468.726C597.461 470.061 609.168 468.633 613.735 468.655L671.236 469.056C676.882 469.045 709.598 468.319 712.114 469.982C711.961 470.76 711.691 472.544 711.104 472.752C707.447 474.053 690.047 473.409 686.514 473.372L686.397 484.429L709.689 484.422L706.995 490.628L636.176 490.566C631.27 490.572 599.339 490.022 597.919 491.699C605.242 493.438 624.842 493.003 633.151 493.083C657.374 493.316 681.769 492.747 706.004 493.206C700.365 506.236 694.15 517.428 686.661 529.411C670.558 510.558 641.43 507.24 620.409 520.466C610.962 526.417 606.865 534.659 604.673 545.38L675.725 545.46L669.884 552.385C626.178 551.785 583.414 555.41 539.665 551.589C523.359 550.162 501.794 550.836 485.157 550.731C465.548 550.707 445.941 551.044 426.345 551.742C416.963 552.159 407.941 553.334 398.511 553.407C364.407 553.689 330.75 552.287 296.589 552.36L290.932 545.447L361.412 545.411C356.672 512.531 313.919 504.472 289.474 520.459C285.372 523.141 283.115 525.492 279.802 529.007C271.869 516.987 266.381 506.468 260.651 493.212C288.761 492.385 317.27 493.622 345.418 493.021C353.209 492.85 360.771 493.211 368.451 491.564L368.264 491.062C358.361 490.009 340.203 490.56 329.688 490.566L259.76 490.634L257.219 484.393L279.91 484.406L279.906 473.398C273.838 473.401 260.508 473.865 255.516 473.092C254.241 471.505 254.603 472.39 254.434 470.327C257.165 468.022 262.028 469.209 265.587 469.174L292.832 469.042L338.253 469.069C349.058 469.045 360.312 468.739 371.219 469.134C373.134 469.203 371.828 467.732 373.063 466.143C376.097 464.821 377.676 464.9 380.949 464.633C381.105 454.597 381.034 444.403 381.053 434.354C378.921 432.448 377.115 431.546 378.105 428.469C384.805 424.018 380.768 425.355 383.086 419.807L384.064 419.492L384.842 420.26ZM550.104 545.378C543.443 514.585 503.391 501.17 475.617 504.825C449.588 506.999 423.326 518.021 416.221 545.323L493.209 545.562L550.104 545.378ZM591.189 491.098C589.474 490.051 576.212 490.479 573.114 490.516C576.855 498.041 572.208 536.996 575.062 542.898L576.005 542.421C577.07 533.365 577.217 502.622 576.855 492.935C579.905 492.843 583.812 492.469 586.646 493.246C587.32 494.599 587.216 493.926 587.112 495.249C587.241 506.785 587.038 530.867 588.514 541.766L588.814 541.937C589.059 538.612 589.157 535.3 589.2 531.963C589.384 519.166 589.42 506.356 589.659 493.559C589.684 492.536 590.547 491.789 591.189 491.098ZM392.461 490.828C388.176 490.204 379.256 490.32 374.757 490.699C379.896 497.428 374.507 533.065 377.668 542.604C378.774 541.31 379.451 497.912 379.146 492.989C381.968 492.867 387.132 492.236 389.313 493.645C389.394 494.312 389.547 495.225 389.53 495.861C389.502 504.324 388.776 536.389 391.156 542.635C392.566 538.721 391.86 500.368 392.828 491.465L392.461 490.828ZM556.02 535.403C544.331 504.488 504.597 490.926 474.147 495.028C446.904 498.059 420.196 508.371 410.172 536.028C422.059 516.686 434.866 505.94 457.837 500.515C469.219 497.863 480.945 496.975 492.597 497.894C521.644 500.435 540.547 510.936 556.02 535.403ZM689.354 520.904C679.153 508.187 657.312 501.531 641.533 504.183C623.924 506.54 609.21 514.083 601.188 530.585C612.798 516.079 622.35 508.621 641.772 506.558C642.544 506.478 643.31 506.417 644.081 506.374C658.997 506.233 670.876 508.07 683.177 516.912C684.769 518.057 687.867 521.094 689.354 520.904ZM360.422 522.863C339.118 497.459 297.637 497.135 275.68 522.019L276.159 521.73C280.671 518.987 284.842 515.038 289.399 512.65C302 506.044 318.944 504.832 332.632 508.083C342.077 510.33 352.99 515.835 358.982 523.531L360.422 522.863ZM662.688 484.406C669.154 484.417 675.761 484.356 682.215 484.442L682.271 473.367L662.695 473.34L662.688 484.406ZM639.52 484.372L658.507 484.43L658.477 473.377L639.739 473.363L639.52 484.372ZM284.193 473.399L284.016 484.411L303.858 484.401L303.844 473.374L284.193 473.399ZM307.964 473.372L307.836 484.397L326.486 484.323L326.529 473.356L307.964 473.372ZM635.569 473.353C629.434 473.351 623.085 473.261 616.968 473.368C616.931 476.994 616.845 480.711 616.857 484.327L635.453 484.362L635.569 473.353ZM330.552 484.347L348.874 484.211L348.893 473.353L330.699 473.352L330.552 484.347ZM593.884 484.206L612.902 484.31V473.341L593.835 473.278L593.884 484.206ZM353.343 473.367C353.229 476.951 353.036 480.733 353.105 484.302C359.529 484.287 366.078 484.344 372.488 484.229L372.654 473.348L353.343 473.367ZM394.979 471.137C394.922 474.281 394.831 477.499 394.82 480.637C400.176 480.499 405.977 480.236 411.299 480.308L411.446 471.222L394.979 471.137ZM554.647 480.374L571.26 480.521L571.376 471.43L554.812 471.15L554.647 480.374ZM444.527 471.478C442.283 470.107 437.795 470.834 434.8 470.97C434.841 473.238 434.954 474.781 434.59 477.01C432.853 478.741 433.082 478.231 430.248 478.878C430.589 475.723 430.716 474.087 430.639 470.926C425.634 470.958 420.501 471.055 415.51 471.019L415.432 480.252L430.531 480.218L535.158 480.275L550.649 480.286L550.606 471.327C545.818 471.095 540.742 471.056 535.93 470.936C535.948 474.195 535.93 475.853 535.495 479.065C534.35 478.658 533.786 478.4 532.69 477.899C531.362 475.922 531.901 473.4 532.054 470.906L520.965 470.815L520.781 477.432L445.18 477.537C445.293 475.183 445.69 473.441 444.527 471.478ZM378.602 470.852C378.573 474.078 378.298 476.762 379.309 479.8L379.884 479.491C380.609 476.869 380.525 476.089 380.579 473.31C385.231 472.942 387.957 472.776 392.46 471.706C387.275 470.879 383.906 470.904 378.602 470.852ZM586.396 472.104C584.822 470.547 581.515 470.808 579.274 470.818C578.693 470.821 578.117 470.827 577.535 470.836C577.498 474.013 577.198 476.765 578.215 479.737L578.846 479.528C579.507 476.631 579.458 476.008 579.464 472.978C582.005 472.942 584.154 473.179 586.396 472.104Z" fill="#394A5A"></path>
<path d="M394.576 181.429C407.167 177.103 419.923 173.278 432.816 169.961C436.953 177.947 440.936 186.012 444.765 194.151C448.787 193.378 453.718 192.791 457.837 192.192C457.345 201.594 456.377 211.693 455.651 221.151C450.333 221.793 445.055 222.727 439.84 223.948C391.701 234.991 352.968 263.186 326.983 305.142C308.612 335.122 299.179 369.72 299.791 404.875C299.884 409.905 300.528 421.555 301.646 426.302L303.008 427.049L304.155 426.689C305.545 424.132 304.833 421.373 304.548 418.609C299.809 372.553 313.699 325.885 341.895 289.656C363.763 261.516 393.939 240.978 428.14 230.958C435.203 228.823 443.694 226.931 451.028 225.755C453.623 225.339 453.805 225.837 455.39 227.121L455.474 228.301C454.755 229.356 453.309 230.206 452.089 230.484C441.683 232.855 432.024 234.77 421.847 238.398C401.513 245.709 382.748 256.806 366.543 271.1C332.696 301.463 312.18 343.943 309.444 389.331C309.086 395.446 307.735 408.122 311.656 412.525L312.648 411.888C313.98 408.694 313.544 406.424 313.383 402.939C320.887 396.99 322.374 397.616 329.584 403.07C329.603 407.706 329.505 413.009 329.822 417.57C331.119 418.683 331.929 419.252 333.359 418.16C334.073 415.885 334.139 414.836 334.424 412.437C337.786 408.315 339.692 413.765 342.596 405.529L343.474 405.538C345.529 414.697 349.07 406.527 350.031 414.811C351.684 415.472 355.113 414.762 357.155 414.528C357.259 410.316 356.24 393.082 357.219 391.269C357.899 391.254 360.832 391.233 361.037 390.629C364.588 380.137 362.756 377.954 372.456 371.145C372.275 363.94 371.064 361.29 376.431 355.977C376.99 351.344 377.379 345.823 378.607 341.455L379.16 341.965L378.518 341.978L379.348 342.767L378.327 342.831L378.266 343.148L379.504 343.693C380.05 347.905 380.411 352.057 380.796 356.284C382.465 357.797 383.672 359.342 385.113 361.061L385.098 371.138C393.418 376.954 391.711 378.337 394.767 387.183C395.947 390.597 397.17 389.976 400.764 391.733C401.843 396.2 397.098 405.45 400.725 409.12C403.269 409.047 402.201 409.439 404.149 408.247C405.252 406.013 404.573 402.045 404.369 399.363C409.48 395.641 408.2 395.449 411.367 392.627C412.804 392.986 419.895 398.332 420.706 399.797C420.844 405.112 420.88 410.429 420.814 415.744L429.909 415.166L429.739 423.718L423.613 426.135C423.737 430.421 423.672 433.138 424.715 437.306L392.932 437.258C395.555 432.638 396.703 428.643 394.454 423.636C387.85 419.749 389.034 410.929 380.673 414.032C378.258 414.928 377.685 418.021 377.325 420.311L371.453 425.414C371.857 427.826 373.28 434.672 372.885 436.357C370.356 438.387 362.961 437.231 358.806 437.228C341.739 437.963 320.34 437.378 302.938 437.392C303.727 440.361 304.244 443.624 304.803 446.663C322.956 446.633 340.823 445.335 358.948 445.211C362.967 445.183 371.113 443.401 373.975 446.306C374.488 448.413 374.655 447.462 373.988 449.277C369.845 450.133 366.517 449.373 362.388 449.647C343.701 450.89 324.705 450.704 305.936 450.921L307.941 456.367C317.666 456.381 367.877 453.402 372.121 454.93C373.498 455.426 373.609 455.621 374.234 456.857L373.372 458.08C364.284 463.027 329.513 459.103 317.551 460.229C297.296 462.135 276.583 460.011 256.246 459.363C253.346 447.257 251.385 432.652 249.52 420.205C256.824 417.292 264.084 414.269 271.297 411.136C270.893 402.162 271.317 392.2 271.529 383.131C264.414 379.959 257.14 376.379 250.088 373.013C252.233 360.432 254.76 347.917 257.664 335.489L282.698 335.585C285.334 326.912 288.876 318.558 292.395 310.219C286.644 304.228 280.843 298.287 274.989 292.397C281.822 281.15 288.066 270.618 295.292 259.57C303.348 262.648 311.338 265.895 319.257 269.309C325.076 261.571 330.674 256.451 336.759 249.38L324.939 225.81C334.229 217.929 345.507 209.453 355.221 202.245C361.958 208.252 368.454 214.024 374.912 220.327C380.744 216.458 390.639 211.621 397.005 208.512C395.854 201.923 395.135 188.557 394.576 181.429Z" fill="white"></path>
<path d="M420.707 399.797C420.845 405.111 420.881 410.428 420.816 415.744L429.911 415.165L429.74 423.718L423.614 426.134C423.738 430.42 423.674 433.137 424.716 437.305L392.934 437.258C395.557 432.638 396.704 428.642 394.455 423.636C395.124 423.525 394.671 423.553 395.797 423.874C397.751 426.978 394.466 429.542 397.752 432.082C402.897 432.607 408.732 431.124 413.424 429.557C417.218 428.29 427.392 422.169 424.099 417.341C423.166 415.974 421.504 416.396 419.928 416.325C420.122 410.798 420.275 405.313 420.707 399.797Z" fill="white"></path>
<path d="M358.809 437.228C363.637 434.847 372.78 439.453 370.793 427.997C370.566 426.688 370.905 426.653 371.455 425.414C371.859 427.827 373.282 434.673 372.887 436.357C370.359 438.388 362.963 437.232 358.809 437.228Z" fill="white"></path>
<path d="M534.077 169.656C547.168 172.792 560.039 176.779 572.616 181.591C571.507 187.518 570.662 201.95 570.105 208.5C577.539 212.301 584.85 215.954 592.038 220.202C597.781 214.365 605.411 207.825 611.613 202.26C622.366 209.718 632.04 217.638 642.174 225.861C637.967 233.737 633.834 241.652 629.774 249.604C636.369 255.818 641.898 262.432 647.764 269.31C655.706 266.136 663.61 262.86 671.472 259.484C678.698 270.221 685.543 281.205 692.003 292.418C686.106 298.303 680.167 304.145 674.185 309.943C678.263 319.348 680.834 325.899 683.957 335.546L709.301 335.522C712.099 347.99 714.53 360.538 716.593 373.149L694.991 383.132C695.242 392.379 695.328 401.629 695.248 410.879C702.498 414.168 709.821 417.304 717.205 420.285C714.67 432.315 712.956 446.462 710.335 459.418L644.837 460.287C629.995 460.576 614.797 460.775 599.949 460.159C597.047 460.038 593.924 459.33 592.105 456.967L592.497 455.906C598.682 451.904 647.176 458.455 658.449 455.747C659.6 453.644 659.575 453.744 659.93 451.376C657.561 449.951 606.586 450.912 599.631 450.13C596.257 449.751 594.469 451.267 591.818 447.455L592.154 446.054C592.754 445.629 593.587 445.043 594.353 445.034C616.855 444.779 639.106 446.548 661.645 446.563C662.214 443.518 662.808 440.479 663.433 437.443C640.575 436.587 615.055 437.462 591.812 437.163C596.502 429.218 595.504 426.945 589.705 420.882C587.629 418.711 588.015 415.626 584.935 413.578C580.019 412.467 578.341 415.256 576.045 419.274C574.306 422.308 573.871 422.367 570.803 424.256C570.54 430.447 570.142 431.761 573.185 437.275C562.598 437.342 552.018 437.311 541.431 437.178C542.858 432.453 543.005 431.178 543.421 426.406L536.673 423.776L536.765 408.785C544.046 408.516 543.476 409.427 550.187 411.052L550.946 410.352C551.871 397.511 561.27 406.742 566.303 402.886L566.162 399.867C567.062 398.547 573.087 394.405 575.224 392.541C577.863 395.625 579.559 396.745 582.823 399.156C583.062 395.552 582.058 387.803 582.321 386.948L584.347 386.244C584.88 385.246 584.954 385.331 584.972 384.518C585.162 376.181 585.829 377.51 591.505 372.033C592.491 371.082 592.13 367.963 592.069 366.335L591.72 365.035C597.041 356.584 592.877 346.773 595.479 342.814L596.189 343.134C596.869 346.153 596.839 356.781 597.396 361.772C601.363 365.874 598.204 366.867 599.22 371.643C600.243 373.783 604.431 375.838 605.313 378.134C606.899 382.259 603.868 385.041 608.589 387.385C609.93 392.407 606.439 403.132 610.542 406.226C613.952 405.092 616.359 397.377 619.261 394.905C620.259 394.057 621.649 392.631 622.659 391.674C626.119 394.065 629.615 395.601 630.05 399.566C630.748 405.962 632.94 402.194 635.622 404.2C636.651 407.071 636.828 407.808 636.516 410.839C637.979 412.284 641.629 412 644.023 412.118L650.048 408.857C652.166 410.479 654.579 411.823 656.875 413.201C658.657 380.588 653.207 350.241 638.316 320.914C619.047 282.401 585.639 252.83 545.068 238.387C537.396 235.766 529.577 233.588 521.654 231.866C518.292 231.124 516.376 231.37 512.996 230.265C511.967 228.901 512.151 228.015 512.12 226.287L513.014 225.746C516.927 225.594 520.692 226.691 524.574 227.433C547.873 232.072 569.897 241.672 589.154 255.58C631.256 286.243 657.818 333.795 661.859 385.718C662.986 399.278 661.988 411.684 661.443 425.107C661.4 426.243 662.098 426.617 662.876 427.133L664.461 426.61C664.847 425.647 665.074 425.058 665.196 424.007C676.72 324.829 611.222 234.722 511.067 221.098C510.528 211.443 509.842 201.797 509.016 192.162C513.394 192.787 517.912 193.291 522.309 193.837C525.75 186.095 530.33 177.453 534.077 169.656Z" fill="white"></path>
<path d="M483.369 577.539C494.507 580.809 508.584 585.401 519.557 589.124C536.358 594.831 537.467 598.504 555.615 599.49C553.974 603.403 553.258 605.197 552.67 609.391L554.213 610.401C554.305 614.137 554.587 618.563 553.791 622.176C553.068 624.019 553.062 623.878 553.521 625.795L553.821 626.162C554.354 629.126 554.452 634.875 554.17 637.894L553.368 637.778C553.086 639.719 552.952 639.712 553.509 641.543L554.072 641.856C554.287 644.789 554.562 650.703 553.735 653.483C552.762 655.094 552.805 656.575 552.609 658.48C552.039 660.917 551.054 664.462 548.751 665.717C541.814 669.501 533.946 672.661 526.684 675.796C512.234 681.949 497.814 688.176 483.425 694.477C473.873 690.773 420.595 668.962 416.307 664.701C413.412 661.823 413.634 657.953 413.574 654.181L411.987 653.508C412.074 649.705 412.128 645.909 412.15 642.113L413.603 641.298L413.695 638.078L411.943 638.059L411.88 626.242L413.483 625.691V622.856L411.869 622.207C411.948 618.331 411.845 614.13 411.824 610.224L413.725 610.34C413.308 606.74 412.04 602.98 411.02 599.466C427.193 599.57 434.302 593.202 449.164 588.383C460.472 584.715 472.017 581.115 483.369 577.539Z" fill="#394A5A"></path>
<path d="M483.258 586.188C494.267 589.892 505.325 593.253 516.34 597.111C525.133 600.197 534.275 604.753 543.441 606.534C545.253 606.883 544.733 606.381 546.362 607.422L545.468 608.543C543.447 612.278 544.366 651.808 544.439 659.248C524.766 668.377 502.227 677.072 483.423 686.361C476.406 683.421 424.859 661.685 422.288 658.758C420.871 649.059 423.2 615.437 421.312 609.229C420.196 607.777 420.337 608.524 420.285 607.024C430.924 605.365 438.673 600.828 448.534 597.466C459.963 593.572 471.734 589.8 483.258 586.188Z" fill="#B38334"></path>
<path d="M479.112 598.612L483.343 597.375C491.671 600.412 499.147 602.714 507.658 605.255L509.109 603.051C517.216 605.598 530.656 609.884 538.181 613.485L538.169 614.299L537.379 617.061L537.257 651.846C537.379 654.436 537.563 655.238 536.889 657.681C532.867 661.122 489.424 680.93 482.86 683.177L446.726 666.804C441.407 664.398 432.461 660.663 427.582 657.852L427.586 644.48C427.552 635.019 427.98 624.757 428.193 615.236C433.716 614.079 440.789 611.293 446.293 609.444C457.213 605.776 468.153 602.163 479.112 598.612Z" fill="#394A5A"></path>
<path d="M509.107 603.047C517.214 605.594 530.654 609.88 538.18 613.48L538.167 614.295L537.378 617.056L537.267 616.285C535.688 614.319 511.593 606.396 507.656 605.251L509.107 603.047Z" fill="#B38334"></path>
<path d="M489.196 625.164C504.173 625.073 503.524 646.528 493.66 653.3C479.509 653.924 478.983 631.881 489.196 625.164Z" fill="#B38334"></path>
<path d="M490.215 627.211C498.352 628.521 496.038 645.941 492.713 651.183C484.453 649.487 487.092 632.611 490.215 627.211Z" fill="#394A5A"></path>
<path d="M467.1 625.29C478.059 624.947 479.492 628.229 475.022 636.979C473.491 639.979 486.245 648.41 471.636 653.26C459.235 653.542 458.342 647.878 464.674 638.969C466.591 636.274 455.593 632.258 467.1 625.29Z" fill="#B38334"></path>
<path d="M467.735 640.141C469.039 640.581 470.276 641.206 471.408 641.99C475.199 644.659 474.262 647.709 472.149 650.917C468.837 651.089 467.754 651.138 465.792 648.156C465.006 644.28 465.607 643.447 467.735 640.141Z" fill="#394A5A"></path>
<path d="M469.109 626.656C475.103 628.971 474.43 632.161 471.203 636.747C468.662 635.008 466.775 634.071 466.426 630.783C466.967 628.585 467.538 628.254 469.109 626.656Z" fill="#394A5A"></path>
<path d="M452.95 625.039C455.127 627.121 453.312 644.608 454.053 649.954C455.13 650.854 455.712 651.405 456.695 652.403C454.27 653.291 448.501 653.021 445.951 652.317C446.871 651.76 447.737 651.172 448.636 650.584C450.564 646.311 449.903 636.134 449.256 631.407C446.383 629.288 448.764 632.528 445.457 631.272C446.726 629.331 450.859 626.607 452.95 625.039Z" fill="#B38334"></path>
<path d="M506.533 639.546C506.613 637.672 507.072 637.305 508.082 635.695C528.184 631.776 520.549 661.473 505.137 651.308C503.919 650.506 504.249 648.994 504.396 647.855C505.517 646.435 504.782 646.796 506.521 646.551C509.295 648.412 507.592 649.582 510.611 651.241C517.965 649.753 517.775 634.746 506.533 639.546Z" fill="#B38334"></path>
<path d="M506.628 625.676C509.488 625.743 518.042 625.192 519.333 626.147C518.225 633.262 514.221 628.627 509.616 630.501C507.877 632.485 508.428 632.442 508.079 635.693C507.069 637.304 506.61 637.671 506.53 639.545L505.838 639.294C505.483 636.495 506.347 628.878 506.628 625.676Z" fill="#B38334"></path>
<path d="M483.258 586.188C494.267 589.892 505.325 593.253 516.34 597.111C525.133 600.197 534.275 604.753 543.441 606.534C545.253 606.883 544.733 606.381 546.362 607.422L545.468 608.543L544.029 608.935C541.61 611.323 541.12 611.831 538.181 613.478C530.656 609.878 517.216 605.591 509.109 603.044C500.923 600.13 492.699 597.307 484.439 594.582C483.386 593.89 483.484 593.633 482.694 593.854C470.099 597.387 457.56 601.55 445.222 605.922C439.624 607.906 434.101 610.594 428.313 611.886C426.048 612.394 424.877 611.574 423.167 610.227L422.481 609.155L421.312 609.229C420.196 607.777 420.337 608.524 420.285 607.024C430.924 605.365 438.673 600.828 448.534 597.466C459.963 593.572 471.734 589.8 483.258 586.188Z" fill="#394A5A"></path>
<path d="M400.023 696.408C417.373 695.98 435.509 696.225 452.92 696.237C467.697 715.09 484.6 739.331 498.861 758.931L544.251 696.231L596.891 696.268L584.688 707.754L584.761 786.907L595.054 796.618C575.913 796.704 556.779 796.692 537.644 796.575L547.19 786.797L547.343 756.684C547.258 745.656 547.276 734.622 547.386 723.595L490.038 802.325C476.01 785.333 462.347 764.325 448.77 746.599C443.801 740.115 438.246 731.469 433.011 725.487L432.995 786.864L443.987 796.581C429.824 796.716 415.661 796.704 401.5 796.539C405.317 793.446 409.214 790.048 412.984 786.864L413.089 707.822C409.77 705.299 402.69 699.36 400.023 696.408Z" fill="#394A5A"></path>
<path d="M216.113 696.289C235.8 695.493 259.918 696.112 279.842 696.112L386.441 696.24L374.712 707.721L374.735 786.647L385.914 796.628L328.043 796.573L337.197 786.733C337.288 777.352 337.31 767.972 337.263 758.585C337.519 743.082 337.255 727.223 337.419 711.615C314.774 711.352 291.662 711.591 268.979 711.591L268.954 786.604L278.29 796.56C258.94 796.995 238.653 796.683 219.234 796.652L231.564 786.702L231.625 707.966C226.135 704.059 221.264 700.655 216.113 696.289Z" fill="#394A5A"></path>
<path d="M632.64 696.333C644.954 695.824 660.078 696.235 672.569 696.235L748.47 696.192C748.231 731.001 753.65 734.687 715.669 742.806C738.079 748.789 752.174 745.599 751.152 773.532C750.619 787.964 747.319 795.918 731.185 796.144C697.134 796.622 663.623 795.997 629.622 796.359C617.921 796.469 616.384 782.686 613.824 773.587L613.83 772.142L614.822 772.081C617.627 774.291 625.146 779.557 628.391 779.949C637.447 781.045 648.891 780.61 658.039 780.592L715.62 780.531C715.73 773.501 716.875 764.225 711.646 759.106C702.223 749.866 673.824 752.438 660.751 752.469L660.776 736.683C673.487 736.763 699.345 739.28 708.052 730.567C713.716 724.903 713.079 719.184 713.005 712.02L663.984 711.989C639.174 711.971 636.351 708.401 616.133 723.598C620.4 714.138 623.566 700.9 632.64 696.333Z" fill="#394A5A"></path>
<path d="M430.816 340.898C436.434 341.445 442.685 341.719 448.336 341.528C476.982 340.564 507.352 342.723 535.843 340.967C533.247 344.624 528.991 349.267 528.22 353.703C526.75 362.175 525.704 415.746 529.047 419.681C530.363 421.225 529.304 422.833 529.775 424.628C530.088 425.829 531.392 426.915 531.802 428.384C526.322 429.297 506.643 428.208 499.772 428.169L499.766 419.407C505.025 419.296 510.292 419.253 515.558 419.274C519.764 419.437 521.509 419.432 525.703 418.98L525.728 418.477C519.409 415.078 508.228 416.426 500.274 416.438C500.238 408.225 500.532 400.479 499.999 392.046C499.038 376.828 481.391 370.889 471.092 381.094C464.487 387.638 466.548 406.76 466.577 416.438C458.963 416.356 450.05 416.047 442.577 416.594C441.267 417.53 440.734 418.182 439.173 418.209C438.752 415.866 439.411 410.108 439.311 406.73C438.778 388.816 440.648 369.226 437.882 351.642C437.691 350.432 431.993 342.615 430.816 340.898ZM523.702 358.572C522.367 356.689 446.332 356.51 442.887 358.015L443.023 359.026C445.197 359.94 446.893 359.354 448.251 359.953C445.367 364.129 447.442 396.265 446.812 403.729C446.666 405.452 446.78 411.604 447.769 413.075L448.765 413.121C450.001 409.988 449.608 377.578 449.389 372.155L449.388 372.153C449.623 368.583 449.515 363.144 449.562 359.427L494.733 359.396C499.642 359.393 512.886 359.069 516.975 359.804C516.765 365.198 516.321 408.731 517.903 412.764L518.078 412.976C518.813 411.682 519.67 406.221 519.627 404.533C519.272 390.607 520.166 376.615 519.37 362.711C519.309 361.653 518.256 360.4 517.638 359.627H517.64C520.028 359.585 521.773 359.862 523.702 358.572ZM518.022 412.991C517.981 412.941 517.943 412.864 517.903 412.764L517.453 412.217L518.022 412.991ZM505.257 412.341C509.653 392.597 506.071 367.999 480.189 369.452C458.301 373.91 459.076 392.388 460.315 410.396C460.353 410.94 460.773 411.938 460.977 412.436L462.013 412.378C463.261 409.729 462.01 395.713 462.726 391.104C464.902 377.066 472.211 370.959 486.466 371.739L487.305 371.961C509.555 377.993 502.122 395.92 504.577 412.432L505.257 412.341ZM525.812 348.633C524.024 347.202 448.94 346.755 439.953 347.489C441.865 349.464 442.926 349.191 446.077 349.206C463.581 349.285 481.26 349.242 498.753 349.187C504.221 349.169 521.452 349.568 525.812 348.633Z" fill="#394A5A"></path>
<path d="M501.641 127.555C563.104 132.553 615.578 152.653 661.862 194.374C716.578 243.689 749.483 312.709 753.347 386.269C756.592 458.681 730.832 529.396 681.768 582.759C678.242 586.506 666.485 597.711 664.452 601.244C659.805 603.956 648.361 614.445 642.869 618.486C622.693 633.341 604.489 642.856 581.234 651.759C583.334 648.391 584.939 644.791 586.647 641.209C608.586 631.565 627.31 620.991 646.04 605.769C699.844 562.056 736.98 497.336 744.126 428.056C751.755 356.784 730.489 285.428 685.087 229.961C648.086 184.257 596.53 152.63 539.016 140.359C526.696 137.734 514.395 136.461 501.879 135.198L501.641 127.555Z" fill="#394A5A"></path>
<path d="M284.682 582.802C236.371 529.862 210.724 460.1 213.239 388.475C216.587 315.726 248.503 247.236 302.052 197.88C347.981 155.847 404.322 132.975 466.013 127.945L465.408 135.804C396.344 140.648 332.019 172.688 286.546 224.895C240.498 277.898 217.168 346.898 221.601 416.969C226.769 487.51 259.613 553.148 312.973 599.573C332.982 616.889 355.577 630.966 379.939 641.289C381.386 645.98 382.516 647.908 385.467 652.017C365.813 644.596 347.109 634.872 329.744 623.049C323.848 618.983 306.288 603.357 302.587 601.918C301.129 599.42 287.425 585.453 284.682 582.802Z" fill="#394A5A"></path>
<path d="M485.359 72.2639L485.806 70.4551L486.761 70.0547L493.582 186.77C494.837 208.056 496.748 231.845 497.354 253.037L495.995 252.39L492.621 252.36C491.108 251.46 489.994 251.306 488.304 250.896C486.639 246.619 484.489 175.225 484.514 167.052C483.742 153.72 484.428 132.372 484.734 118.703C485.42 116.979 485.769 96.7065 486.412 91.7707C486.332 84.5626 486.045 79.4425 485.359 72.2639Z" fill="#B38334"></path>
<path d="M485.359 72.2639L485.806 70.4551L486.762 70.0547L493.583 186.77C494.838 208.056 496.748 231.845 497.354 253.037L495.995 252.39C492.511 211.262 491.837 168.123 488.513 126.783C487.594 115.303 487.49 103.161 486.413 91.7707C486.333 84.5626 486.045 79.4425 485.359 72.2639Z" fill="#B38334"></path>
<path d="M484.512 167.047C484.959 168.276 485.504 170.067 485.504 171.353C485.528 195.468 487.855 219.412 488.927 243.476C489.025 245.623 489.086 248.92 488.302 250.891C486.637 246.613 484.487 175.22 484.512 167.047Z" fill="#B38334"></path>
<path d="M483.39 55.0691C485 54.2204 484.106 54.4941 486.47 55.0788C486.151 60.282 486.482 64.8711 486.764 70.0505L493.585 186.765C494.84 208.051 496.75 231.84 497.356 253.033L495.997 252.385L492.623 252.356C492.621 252.356 492.62 252.356 492.618 252.356C491.108 251.459 489.995 251.305 488.307 250.896C486.641 246.619 484.492 175.225 484.517 167.051C483.745 153.719 484.43 132.371 484.736 118.702C484.394 114.14 485.349 109.122 484.069 104.656L481.038 186.292C480.248 206.418 478.957 230.497 478.981 250.523L469.919 250.576L469.399 252.783L469.398 252.784L469.919 250.572C470.672 246.121 471.211 234.914 471.566 229.915L474.475 188.219C477.567 144.863 480.389 101.488 482.942 58.0964C483.034 57.8442 483.334 55.5015 483.39 55.0691Z" fill="#394A5A"></path>
<path d="M500.275 814.748C523.898 813.983 549.804 814.515 573.635 814.528L704.283 814.577L887.515 814.613C895.903 814.626 961.506 814.117 964.114 815.281L964.126 816.175C962.786 817.699 962.369 818.526 960.398 818.881L630.39 819.144L538.44 819.157C526.347 819.151 514.211 819.01 502.112 819.267C499.944 819.31 498.983 819.114 497.569 817.846C497.507 815.869 497.311 816.799 498.31 814.981L500.275 814.748Z" fill="#B38334"></path>
<path d="M12.7855 814.719C108.47 813.666 205.902 814.578 301.727 814.566H418.564L453.282 814.615C457.427 814.609 465.918 813.415 468.838 815.711C468.863 817.958 469.132 816.948 468.065 818.883C464.41 819.52 457.357 819.158 453.388 819.085L113.78 818.877L42.6023 818.846C33.6596 818.852 8.14672 819.648 0.639256 817.677L0.113281 815.968C1.90488 814.272 10.239 814.695 12.7855 814.719Z" fill="#B38334"></path>
<path d="M220.089 559.305C217 563.125 215.234 565.158 214.357 570.406C212.638 580.68 219.902 591.843 230.337 593.422C236.696 594.384 242.38 589.951 246.712 585.781C254.926 577.87 265.558 577.496 276.005 580.435C278.979 581.213 281.657 582.554 284.683 582.805C287.426 585.456 301.13 599.423 302.588 601.921C291.772 597.335 283.069 593.882 270.882 596.919C260.587 599.135 254.111 609.312 256.995 619.513C258.521 624.913 261.326 625.936 265.508 628.416L265.074 629.163C257.916 630.932 246.603 625.311 243.841 618.282C240.734 610.377 241.038 606.348 243.615 598.737C234.913 601.56 227.98 602.576 219.212 599.135C204.483 593.349 198.413 572.757 212.353 562.709C214.603 561.087 217.509 560.211 220.089 559.305Z" fill="white"></path>
<path d="M745.72 559.227C757.385 563.592 764.751 572.201 759.84 585.403C753.809 601.616 736.909 603.582 722.061 598.72C729.109 617.989 718.026 629.685 698.487 629.231C703.367 627.009 706.576 625.472 708.621 620.163C712.534 610.029 704.708 599.884 695.315 596.945C684.257 593.479 674.479 597.177 664.449 601.243C666.482 597.71 678.238 586.505 681.765 582.757C685.084 582.347 687.57 580.792 690.748 580.057C706.962 576.304 714.279 580.627 725.012 591.728C730.572 593.393 736.903 594.116 741.851 590.76C754.593 582.133 753.601 569.905 745.72 559.227Z" fill="white"></path>
<path d="M492.618 252.359L495.992 252.389L497.351 253.037L502.146 260.081C504.062 262.077 504.491 261.903 505.122 264.211C503.799 265.392 504.564 264.996 502.654 265.247L502.409 266.583C501.613 267.633 500.486 269.109 500.376 270.411C499.984 275.135 498.858 291.123 500.835 294.65C503.223 295.949 503.879 295.809 503.517 298.505C500.578 299.842 467.096 299.983 463.519 298.389L463.088 297.244C463.8 295.582 464.585 295.365 466.173 294.455L466.761 294.125C466.606 286.648 468.445 271.812 464.675 266.648L464.891 265.199C463.258 265.198 463.37 265.232 461.919 264.487L461.867 263.415C463.515 261.846 487.365 261.188 492.661 260.527C489.104 259.833 476.019 260.04 471.39 259.852L464.653 260.011C466.266 257.709 467.853 255.159 469.394 252.788C476.074 252.681 486.422 253.113 492.618 252.359Z" fill="#394A5A"></path>
<path d="M492.621 252.359L495.995 252.389L497.355 253.037L502.149 260.081C491.832 260.178 481.986 259.665 471.393 259.852L464.656 260.011C466.269 257.709 467.856 255.159 469.397 252.788C476.077 252.681 486.425 253.113 492.621 252.359Z" fill="#394A5A"></path>
<path d="M502.146 260.082C504.062 262.079 504.491 261.905 505.122 264.213C503.799 265.394 504.564 264.998 502.654 265.248L502.409 266.584C496.568 266.012 470.508 266.145 464.675 266.65L464.891 265.201C463.258 265.2 463.37 265.234 461.919 264.489L461.867 263.417C463.515 261.848 487.365 261.19 492.661 260.529C489.104 259.835 476.019 260.041 471.39 259.854C481.983 259.667 491.828 260.18 502.146 260.082Z" fill="#B38334"></path>
<path d="M481.483 276.191C483.528 275.395 484.318 275.036 486.063 276.855C487.563 279.781 488.739 287.591 486.639 290.216L484.649 290.611L481.52 290.182L480.228 290.002C478.342 287.121 478.813 278.956 481.483 276.191Z" fill="#B38334"></path>
<path d="M484.648 290.615C486.975 286.401 484.25 280.662 486.063 276.859C487.563 279.786 488.739 287.595 486.638 290.22L484.648 290.615Z" fill="#B38334"></path>
<path d="M498.861 901.646C511.628 901.211 526.458 901.542 539.334 901.548L613.631 901.609L840.619 901.646L927.327 901.664C937.871 901.621 950.975 901.395 961.745 901.811C963.361 901.872 964.17 903.514 965.156 904.836C943.07 905.522 918.131 904.983 895.867 904.977L766.187 904.952L588.233 904.983C560.073 904.995 531.846 904.818 503.686 905.112C501.8 905.13 499.381 905.136 497.851 904.071L497.734 902.662L498.861 901.646Z" fill="#B38334"></path>
<path d="M14.323 901.663L322.325 901.608L419.25 901.571L446.529 901.541C450.71 901.51 466.015 900.531 468.398 903.347C465.489 905.925 458.993 905.104 455.165 904.964L8.74371 904.921C6.39858 904.909 1.50872 905.08 0 903.549C3.61688 901.149 10.0246 901.62 14.323 901.663Z" fill="#B38334"></path>
<path d="M350.279 182.771L351.156 182.713C352.264 182.629 352.889 182.536 353.968 182.352L355.836 183.621C296.624 220.521 256.19 275.029 240.408 343.339C231.685 380.565 231.81 419.318 240.772 456.487C243.783 468.635 247.615 477.996 250.849 489.251L249.776 489.317L249.079 488.625L249.069 489.354C247.982 490.254 248.444 489.691 247.766 491.111C243.916 482.515 239.207 466.854 237.022 457.79C225.767 411.597 228.004 363.145 243.466 318.185C258.956 272.275 287.043 231.646 324.518 200.934C330.98 195.621 342.914 186.355 350.279 182.771Z" fill="#B38334"></path>
<path d="M450.577 316.722C452.715 309.256 456.985 300.867 464.429 301.769C478.788 303.509 509.452 294.408 514.846 311.768C515.33 313.315 516.175 315.304 516.806 316.607L516.365 317.924L506.078 318.443C501.498 321.406 493.844 321.804 488.334 322.106L487.397 323.456C479.608 323.5 470.975 323.718 463.274 323.313C455.341 323.495 447.406 323.594 439.471 323.608C438.237 321.772 437.256 320.642 436.781 318.478L437.847 317.899C440.166 317.539 447.329 317.566 450.183 317.468L450.577 316.722Z" fill="#394A5A"></path>
<path d="M456.137 318.476C472.605 318.382 489.67 318.092 506.08 318.441C501.5 321.404 493.846 321.802 488.335 322.104L487.399 323.454C479.61 323.498 470.977 323.716 463.276 323.31C461.24 322.951 459.675 322.2 457.765 321.424C457.484 321.367 456.728 320.96 456.43 320.814L456.137 318.476Z" fill="#B38334"></path>
<path d="M457.766 321.422C467.111 322.509 478.863 322.304 488.336 322.102L487.399 323.452C479.61 323.496 470.977 323.714 463.276 323.308C461.24 322.949 459.675 322.198 457.766 321.422Z" fill="#B38334"></path>
<path d="M437.847 317.898C443.679 318.408 450.229 318.377 456.135 318.478L456.428 320.815C456.726 320.961 457.483 321.368 457.764 321.425C459.673 322.201 461.238 322.952 463.274 323.312C455.341 323.494 447.406 323.593 439.471 323.608C438.237 321.771 437.256 320.641 436.781 318.478L437.847 317.898Z" fill="#B38334"></path>
<path d="M440.414 325.42C448.233 325.048 523.868 324.983 525.76 325.904C524.039 329.071 524.602 335.101 524.645 338.962C521.339 339.545 503.037 339.265 498.818 339.253C479.806 339.147 460.799 339.139 441.791 339.229C441.901 334.599 442.533 329.423 440.414 325.42Z" fill="#394A5A"></path>
<path d="M639.127 640.692C653.633 639.461 661.911 643.159 669.075 655.871C638.153 647.427 616.753 658.804 587.216 665.068C580.75 666.133 562.601 668.729 556.154 667.358L555.988 666.519C558.26 665.313 575.888 662.582 580.823 661.357C600.325 656.52 619.882 643.582 639.127 640.692Z" fill="white"></path>
<path d="M317.931 640.645C342.87 638.796 368.881 660.019 393.933 663.252C399.754 664.005 408.596 665.48 414.107 667.146C406.09 667.881 398.016 667.697 390.042 666.589C355.308 663.154 336.073 646.229 297.168 655.996C297.771 654.906 298.409 653.834 299.081 652.781C304.061 645.103 309.41 642.574 317.931 640.645Z" fill="white"></path>
<path d="M283.336 602.673C292.636 601.975 300.066 606.488 306.781 612.415C319.042 623.228 331.261 632.627 345.131 641.309L337.098 638.499C308.073 632.308 293.546 629.553 274.16 606.696C277.971 604.596 279.236 604.081 283.336 602.673Z" fill="white"></path>
<path d="M676.612 602.654C681.204 602.372 688.203 602.96 691.13 607.007C690.891 609.046 686.672 612.855 685.141 614.453C671.438 628.799 653.277 633.012 634.651 637.255C629.826 638.321 626.017 639.588 621.309 641.125C628.907 636.637 636.188 631.622 643.082 626.105C654.575 617.012 662.896 606.701 676.612 602.654Z" fill="white"></path>
<path d="M615.067 180.812C618 182.592 625.054 186.74 627.289 188.911C644.029 199.604 665.215 220.02 677.7 235.532C695.616 258.475 706.643 275.988 717.848 303.202C721.884 313.906 728.6 332.931 730.443 344.21L729.298 344.254C729.072 342.424 729.494 343.079 728.484 341.908C727.945 344.854 728.839 347.654 727.78 348.785C724.676 335.001 720.634 321.444 715.687 308.209C705.223 282.481 692.634 259.462 674.656 238.099C658.957 219.024 646.962 208.443 627.65 193.695C623.211 190.746 618.79 187.774 614.387 184.779C614.051 184.14 613.224 182.989 612.832 182.409L612.985 181.657L615.067 180.812Z" fill="#B38334"></path>
<path d="M615.067 180.812C618 182.592 625.054 186.74 627.289 188.911C627.674 190.934 630.136 192.443 631.691 193.856L631.318 194.043L630.338 193.578L629.762 194.045C628.28 193.55 628.991 193.627 627.65 193.695C623.211 190.746 618.79 187.774 614.387 184.779C614.051 184.14 613.224 182.989 612.832 182.409L612.985 181.657L615.067 180.812Z" fill="#B38334"></path>
<path d="M727.572 450.195L728.417 450.064L729.409 447.688C730.272 451.09 728.595 453.247 729.807 456.417C723.488 484.301 712.271 510.842 696.681 534.814C680.804 559.19 662.845 580.125 640.068 598.298C637.582 600.282 631.673 605.333 629.003 605.897C627.46 602.155 638.757 595.089 642.009 592.224C651.395 584.086 660.268 575.373 668.57 566.134C700.863 529.885 715.785 496.086 727.572 450.195Z" fill="#B38334"></path>
<path d="M98.5465 862.479C98.6396 857.862 99.2721 849.363 97.832 845.145C97.1848 843.246 97.1793 844.998 97.5595 842.904C99.2017 842.175 104.841 842.187 106.183 843.253C103.026 847.643 102.995 872.533 105.517 877.076L105.204 877.493C102.209 877.989 73.8278 878.148 72.1281 877.376C72.5481 876.727 73.6662 874.841 73.6686 873.764C73.6931 864.671 74.6171 853.809 73.0422 844.949C72.2199 844.006 71.5574 843.246 71.0547 842.671C74.1076 842.579 77.7576 842.261 80.6752 842.879C80.3409 843.693 80.0635 844.538 79.8462 845.396C79.1977 847.875 79.1359 872.637 80.0911 874.174C81.9592 874.26 84.0557 874.633 85.6067 873.807C86.764 868.045 85.7757 849.167 84.9222 843.13C86.7425 842.677 91.6685 842.218 93.1166 843.253C90.8609 847.661 91.3036 868.284 92.1045 873.653C93.7351 875.025 94.8525 875.343 96.7825 874.682C99.3774 871.921 98.6078 866.404 98.5465 862.479Z" fill="#394A5A"></path>
<path d="M392.172 842.685C394.324 842.587 400.366 841.999 401.632 843.242C399.993 847.069 399.021 871.635 401.09 874.146C403.759 874.311 403.403 874.69 405.45 873.656C408.448 868.947 406.409 849.182 405.54 843.316L406.424 842.667C408.515 842.593 411.86 842.134 413.476 843.157C413.2 844.063 412.971 844.981 412.79 845.912C411.684 851.386 411.023 870.288 414.143 875.095L416.271 875.278C419.574 871.317 418.819 866.375 418.698 861.41C418.715 854.478 419.439 849.519 417.121 842.93C418.737 842.41 423.19 842.324 424.8 842.82C426.163 848.551 421.451 870.037 425.592 876.913L425.29 877.617C420.927 878.027 396.388 878.119 393.041 877.121C393.938 875.995 394.873 874.678 394.717 873.184C393.968 866.081 396.899 847.712 392.172 842.685Z" fill="#394A5A"></path>
<path d="M497.946 842.008C503.028 842.424 506.873 844.488 508.618 849.466C512.096 859.361 511.502 873.707 500.83 878.465C483.985 877.504 484.2 847.323 497.946 842.008ZM497.593 845.352C493.551 851.45 490.802 875.086 501.266 874.957C504.658 868.895 508.302 845.242 497.593 845.352Z" fill="#394A5A"></path>
<path d="M910.695 841.953C926.676 842.118 927.644 871.925 913.604 878.624C899.84 877.748 899.656 860.647 902.705 850.568C904.083 846.013 906.52 843.888 910.695 841.953ZM911.694 844.953C904.929 850.109 905.094 870.975 912.576 875.85C915.301 873.284 916.232 871.705 916.727 867.878C917.542 861.534 919.238 847.5 911.694 844.953Z" fill="#394A5A"></path>
<path d="M595.273 842.086C600.006 842.46 603.68 844.407 605.345 848.999C608.952 858.943 608.676 873.804 597.759 878.567C592.064 878.022 588.58 875.591 586.933 869.903C584.233 860.56 584.374 845.68 595.273 842.086ZM594.912 845.297C590.663 851.157 588.471 874.534 598.047 875.294C602.125 869.293 605.009 845.364 594.912 845.297Z" fill="#394A5A"></path>
<path d="M929.976 842.675C932.75 842.62 947.671 841.891 948.939 843.244C948.504 843.954 947.946 844.873 947.267 845.987C947.622 853.041 946.214 863.009 947.665 869.787C949.478 878.237 950.372 879.07 949.839 888.156C948.167 884.495 947.365 881.091 944.836 877.98C940.281 877.76 935.658 877.778 931.09 877.741L926.424 888.659C926.179 885.059 925.695 878.42 926.54 875.096C926.914 874.887 929.02 873.694 929.186 873.449C932.596 868.532 933.227 856.905 933.159 851.161C933.104 846.22 932.976 845.528 929.976 842.675ZM941.549 846.89C940.061 845.647 938.659 846.033 936.308 846.106C935.989 855.064 935.707 864.953 932.934 873.537L933.276 874.186C935.634 874.358 937.214 874.395 939.577 874.34L941.114 874.003C942.296 870.788 942.069 850.851 941.549 846.89Z" fill="#394A5A"></path>
<path d="M355.715 610.086C373.269 610.864 393.701 609.835 411.821 610.221C411.842 614.127 411.945 618.328 411.866 622.203L368.011 622.173C364.048 618.003 359.947 613.974 355.715 610.086Z" fill="#394A5A"></path>
<path d="M554.212 610.403C572.74 609.662 591.868 610.36 610.433 610.195C605.933 614.297 602.431 618.099 598.2 622.116L553.789 622.177C554.585 618.565 554.303 614.138 554.212 610.403Z" fill="#394A5A"></path>
<path d="M351.462 842.553C353.448 842.541 358.666 842.192 359.886 843.312C356.472 848.848 358.761 867.186 358.859 874.283C358.86 874.332 360.465 876.738 360.685 877.069C359.054 878.183 353.669 877.724 351.664 877.485L351.219 876.83C354.439 872.482 353.065 866.727 352.792 860.683C352.787 858.063 352.616 855.277 352.501 852.644C351.487 857.377 347.97 873.811 345.267 876.707L344.232 876.487C340.965 872.176 339.135 859.385 336.868 853.366C336.914 858.938 335.1 872.758 338.131 876.787L337.761 877.528C334.959 877.81 334.2 877.889 331.431 877.657L331.166 877.063C334.91 870.56 333.201 860.138 333.943 852.546C334.309 848.805 333.88 845.321 331.117 842.608L340.318 842.578C342.148 850.458 343.924 858.687 346.141 866.439C347.087 860.034 349.927 849.197 351.462 842.553Z" fill="#394A5A"></path>
<path d="M341.595 556.931C356.763 556.741 444.693 555.559 453.538 558.951C450.471 560.415 421.365 560.66 415.142 561.07C402.609 562.491 313.68 562.074 303.309 558.817L303.42 558.29C310.978 557.114 332.966 557.139 341.595 556.931Z" fill="#394A5A"></path>
<path d="M558.187 556.909C584.075 555.991 611.66 556.866 637.609 557.148C642.452 557.197 659.756 557.387 663.558 558.207L663.491 558.844C659.842 560.491 625.351 561.079 619.117 561.312C593.248 561.991 568.057 562.395 542.212 560.552C534.283 559.989 521.724 560.987 514.34 559.119C516.716 557.466 552.37 557.074 558.187 556.909Z" fill="#394A5A"></path>
<path d="M876.859 842.737C889.491 842.198 901.462 842.235 892.173 858.529C890.894 860.782 901.161 862.932 894.444 875.153C891.131 877.626 880.289 879.457 877.239 877.192C880.98 871.804 878.929 852.902 878.696 845.762C878.672 845.04 877.306 843.306 876.859 842.737ZM884.484 860.657C884.356 864.514 883.688 870.221 884.913 873.558C886.927 874.984 887.724 874.384 889.897 873.105C891.391 867.251 892.659 861.306 884.484 860.657ZM884.611 845.235C884.354 848.774 883.687 853.146 884.66 856.409L885.573 857.444C886.987 857.438 887.159 857.468 888.518 857.15C890.605 851.364 891.536 847.329 884.611 845.235Z" fill="#394A5A"></path>
<path d="M149.944 865.535C152.588 859.829 155.11 853.945 157.47 848.097C158.384 845.831 157.718 845.709 156.494 843.217L157.168 842.672C159.943 842.586 163.163 842.292 165.812 842.886C162.587 849.585 164.487 859.063 163.842 866.521C163.612 869.191 163.921 874.334 164.977 876.839C165.415 877.053 165.177 876.881 165.545 877.512C163.419 877.745 158.273 878.222 156.514 877.175C156.934 876.649 158.069 875.308 158.094 874.708C158.354 868.321 158.244 860.306 158.226 854.024C156.168 860.025 152.975 865.474 151.329 871.536C150.609 874.187 150.982 876.19 149.282 877.635C146.944 877.69 144.579 877.959 142.434 877.139C143.519 875.675 144.334 874.598 144.348 872.461C144.403 863.748 144.531 854.912 143.973 846.223C143.899 845.072 142.549 843.59 141.789 842.758C145.02 842.654 148.444 842.372 151.597 842.899C148.878 851.428 149.895 856.535 149.944 865.535Z" fill="#394A5A"></path>
<path d="M287.469 842.8C290.622 842.647 293.641 842.328 296.736 842.849C294.541 850.558 295.382 858.291 295.266 866.423C297.265 860.881 300.205 855.364 302.111 849.762C303.353 846.112 303.378 846.131 301.933 843.222C303.541 842.175 308.816 842.696 310.907 842.831C311.627 844.539 309.031 844.539 309.328 847.557C310.006 854.452 306.979 872.723 311.602 877.683C308.751 877.756 305.096 878.02 302.362 877.542C301.725 875.387 304.442 873.874 303.935 869.362C303.445 864.996 303.756 858.824 303.772 854.281C301.742 860 297.334 868.137 295.941 874.187C296.331 875.374 296.661 876.373 296.929 877.193C295.074 878.148 290.032 878.124 288.106 877.371C291.122 873.311 290.963 847.735 287.469 842.8Z" fill="#394A5A"></path>
<path d="M256.781 842.684C258.861 842.604 265.255 842.188 266.778 843.222C263.894 847.79 265.113 859.43 265.199 865.523C267.28 860.636 269.438 855.781 271.67 850.962C273.707 846.517 271.219 845.041 273.255 842.751C276.257 842.561 277.807 842.328 280.805 842.849C280.391 844.355 278.988 845.739 278.939 846.908C278.674 853.27 278.636 859.773 278.756 866.141C278.841 870.611 278.241 873.746 280.981 877.42C279.108 878.032 274.292 878.056 272.211 877.677L271.671 876.862L272.129 876.115C274.38 872.289 273.392 859.461 273.375 854.066C271.211 860.422 266.088 868.958 265.612 875.056C266.352 876.409 266.181 875.913 266.498 877.45C264.428 878.124 259.617 878.13 257.566 877.193C258.455 875.185 259.462 875.136 259.459 872.503C259.451 863.453 260.049 853.956 258.682 845.01C258.682 845.01 256.947 842.892 256.781 842.684Z" fill="#394A5A"></path>
<path d="M431.812 842.784C435.191 842.612 437.647 842.404 441.044 842.808C440.845 845.447 439.552 846.2 439.667 849.88C439.832 855.115 439.664 860.602 439.652 865.868C441.896 860.504 445.451 852.544 447.088 846.8C446.722 845.276 446.415 843.996 446.169 842.967C448.169 842.441 452.854 842.355 454.813 843.084C452.288 849.617 452.578 867.086 453.229 874.764C454.138 876.044 454.383 876.124 454.655 877.63C452.292 877.673 447.916 878.071 446.079 877.183C448.87 873.583 447.634 860.191 447.496 854.779C446.269 858.048 440.129 870.888 440.528 874.342C441.115 879.412 433.592 877.924 432.535 877.207C435.916 872.468 434.148 852.605 433.901 846.133C433.874 845.423 432.349 843.445 431.812 842.784Z" fill="#394A5A"></path>
<path d="M188.847 857.805C188.839 852.024 189.711 847.659 187.113 843.201L187.771 842.656C190.852 842.558 193.263 842.368 196.331 842.815C196.176 843.336 195.042 846.25 195.039 846.367C194.786 855.87 193.698 866.732 195.741 875.966C197.018 881.727 195.27 869.23 196.334 877.747C195.229 877.766 194.123 877.778 193.018 877.784C190.958 877.815 189.971 878.139 188.344 876.909C188.013 875.843 188.826 864.528 188.772 861.491L180.315 861.411C180.271 864.754 179.724 873.137 181.188 875.898C182.008 877.447 181.746 875.531 181.681 877.472C178.314 877.87 176.792 877.827 173.457 877.729L173.022 877.16C176.083 872.947 174.369 854.866 174.682 849.171C174.845 846.195 174.136 844.689 172.004 842.638C174.511 842.619 178.952 842.148 180.828 843.366C181.034 843.918 180.315 854.939 180.428 857.756L188.847 857.805Z" fill="#394A5A"></path>
<path d="M802.996 866.181C804.857 859.783 808.452 852.631 810.068 846.202C809.578 845.008 809.168 844.004 808.831 843.177L809.566 842.638C811.96 842.583 815.254 842.308 817.446 842.987C814.262 850.788 815.309 869.598 817.299 877.729C814.415 877.748 811.562 877.944 808.776 877.301C811.562 872.947 810.135 861.362 810.876 854.107L806.566 864.473C804.845 868.704 802.31 873.168 803.969 877.117L803.32 877.674C800.994 877.803 798.238 878.25 796.199 877.319C797.442 869.457 797.699 861.767 797.546 853.819C797.467 849.404 798.165 845.859 794.883 842.632C797.534 842.577 801.832 842.271 804.233 842.95C801.679 847.849 802.855 859.985 802.996 866.181Z" fill="#394A5A"></path>
<path d="M614.387 184.779C586.166 168.452 560.749 157.184 528.187 151.707C519.492 150.245 511.943 149.721 503.383 148.602C502.482 147.377 502.764 148.052 502.801 146.457C506.273 143.224 519.211 146.301 524.176 147.06C556.377 151.979 587.446 163.551 615.067 180.813L612.985 181.658L612.832 182.409C613.224 182.989 614.051 184.141 614.387 184.779Z" fill="#B38334"></path>
<path d="M611.297 842.622C614.205 842.567 617.769 842.31 620.53 842.94C617.8 848.31 618.969 858.909 619.104 865.485C621.835 859.515 626.843 849.492 625.894 843.191C627.505 841.961 630.731 842.665 633.279 842.793L633.769 843.479C630.431 848.249 632.201 867.922 632.379 874.462C632.397 875.215 633.762 877.089 634.301 877.78C633.15 877.817 631.993 877.848 630.842 877.86C629.188 877.878 626.176 878.191 625.251 877.285C627.603 873.005 626.672 861.028 626.66 855.046C624.143 861.181 621.259 867.598 619.196 873.898C619.141 874.058 620.2 876.997 620.365 877.431C618.816 878.215 613.869 878.227 612.356 877.346C612.846 874.731 613.22 872.092 613.477 869.441C614.04 863.183 615.148 846.89 611.297 842.622Z" fill="#394A5A"></path>
<path d="M345.988 566.126C370.689 564.552 401.012 565.759 425.67 566.757C428.672 566.879 440.431 567.167 442.771 567.877C439.419 569.824 415.978 569.739 409.934 569.99C387.895 570.486 366.572 570.602 344.528 569.69C333.794 569.243 319.547 569.616 309.289 567.645C317.127 566.426 337.189 566.377 345.988 566.126Z" fill="#394A5A"></path>
<path d="M572.458 565.488C592.443 564.894 612.888 565.892 632.886 566.4C639.297 566.565 646.589 566.804 652.927 567.612C649.712 569.498 612.612 569.847 606.134 570.135C597.311 570.288 528.231 570.356 523.871 568.445L524.269 567.637C527.178 567.074 536.564 566.896 539.914 566.761L572.458 565.488Z" fill="#394A5A"></path>
<path d="M350.277 182.772C378.539 164.808 410.327 153.068 443.317 147.532C448.015 146.744 460.988 143.626 464.314 146.685L464.139 148.162C461.992 149.078 438.617 152.149 433.445 153.241C404.845 159.286 381.005 169.066 355.834 183.622L353.966 182.352C352.887 182.537 352.262 182.63 351.154 182.714L350.277 182.772Z" fill="#B38334"></path>
<path d="M732.52 842.622C735.005 842.554 739.212 841.991 741.049 843.314C741.239 843.883 740.504 855.143 740.559 857.727L748.482 857.77C748.599 852.731 749.584 847.085 746.762 843.485L747.38 842.769C750.491 842.652 752.236 842.487 755.352 842.952C754.452 848.347 753.068 850.165 753.877 856.074C753.95 856.625 754.024 866.177 753.999 866.251C752.946 869.422 755.573 876.941 755.499 877.915C752.377 878.025 750.087 878.601 747.827 876.929C747.656 876.096 748.556 864.861 748.458 861.401H740.541C740.516 866.581 740.235 872.227 741.227 877.29C739.549 878.086 734.693 878.233 733.211 877.15C734.363 875.711 735.299 874.394 735.104 872.514C734.338 865.185 737.577 848.047 732.52 842.622Z" fill="#394A5A"></path>
<path d="M14.1562 842.664C17.9721 842.597 35.4583 841.783 37.4453 843.332C37.4067 843.381 36.0455 845.26 36.0449 845.395C35.9929 853.416 34.0862 871.039 37.4208 877.462C35.6347 877.927 30.2427 878.049 28.5491 877.076C31.2218 873.053 30.2507 859.38 30.195 853.753C30.258 851.39 30.6609 848.781 29.4982 846.846C27.6263 845.616 24.6781 846.105 22.2938 846.191C22.1854 855.719 21.6858 865.252 23.1473 874.639C23.7701 878.637 17.6697 878.043 15.1451 877.707C13.4723 875.674 16.7457 877.364 16.69 871.737C16.6061 863.262 17.4578 853.073 15.9864 844.771C15.2364 843.907 14.6259 843.203 14.1562 842.664Z" fill="#394A5A"></path>
<path d="M112.262 842.716C114.854 842.588 119.43 841.951 121.277 843.42C121.395 843.812 120.656 855.238 120.744 857.987C122.491 855.06 125.926 849.439 127.554 846.182C127.577 846.133 127.064 843.947 126.991 843.659L126.827 843.016C128.716 842.257 134.204 842.606 136.544 842.637C130.404 846.959 129.026 850.425 125.084 856.72L134.195 874.085L137.08 877.642C133.779 877.752 130.725 877.832 127.414 877.801C125.443 875.358 128.495 877.109 127.31 874.232C125.529 869.909 122.88 865.072 120.745 860.908C120.718 865.023 120.739 870.233 120.745 874.434C120.746 875.052 122.202 875.652 122.047 877.654C119.963 877.954 114.701 878.107 112.944 877.158C114.379 875.211 115.064 874.538 114.778 871.929C113.976 864.612 117.427 848.141 112.262 842.716Z" fill="#394A5A"></path>
<path d="M760.496 842.664C762.994 842.572 767.341 841.953 769.166 843.392C769.245 843.662 768.463 853.905 768.518 856.011C780.476 856.471 783.353 865.656 777.536 875.073C774.076 877.644 764.09 879.242 760.912 877.124C762.547 874.925 763.319 873.842 763.031 870.866C762.339 863.733 765.376 847.96 760.496 842.664ZM768.498 858.726C768.296 863.012 767.543 869.484 768.779 873.403C770.641 875.068 771.358 874.328 773.458 872.925C775.019 866.766 776.182 860.759 768.498 858.726Z" fill="#394A5A"></path>
<path d="M562.148 842.656C573.556 842.448 587.087 841.744 579.979 860.523C578.778 863.676 573.978 863.885 570.861 864.626C569.937 866.187 570.268 867.73 570.207 869.849C569.931 874.649 571.51 874.337 571.633 877.233C569.875 878.194 564.855 878.016 563.043 877.202C566.466 870.73 564.463 861.974 564.818 854.59C565.057 849.673 565.339 846.41 562.148 842.656ZM570.326 845.211C570.161 849.332 568.955 858.314 571.453 861.088C573.106 860.953 573.052 860.85 574.509 859.986C577.766 853.814 577.631 847.685 570.326 845.211Z" fill="#394A5A"></path>
<path d="M709.457 842.615C712.004 842.542 716.235 841.966 718.127 843.38C718.17 843.515 717.375 853.882 717.454 856.086C719.554 856.337 722.402 856.331 724.189 857.451C731.163 861.817 730.33 869.367 726.362 875.551C723.331 877.535 712.691 879.279 710.039 877.277C710.964 875.943 711.98 874.663 711.992 872.838C712.035 864.07 712.414 854.977 711.869 846.234C711.796 845.052 710.259 843.466 709.457 842.615ZM717.377 859.367C717.206 863.5 716.49 869.893 717.751 873.628C719.79 875.067 720.482 874.363 722.515 872.851C724.192 867.089 725.221 860.114 717.377 859.367Z" fill="#394A5A"></path>
<path d="M227.703 842.665C230.583 842.549 234.926 841.869 236.988 843.608C237.106 844.08 236.18 854.954 236.258 858.046C238.059 855.046 242.226 848.507 243.24 845.562C242.578 844.19 242.662 844.502 242.302 843.021C244.365 842.396 249.297 842.616 251.725 842.61C246.34 846.658 244.196 851.152 240.611 856.822C243.712 862.676 246.712 868.584 249.611 874.542L252.658 877.646L244.576 877.671C242.646 873.048 238.655 865.547 236.215 861.279C236.196 866.876 235.744 872.185 237.283 877.591C234.498 877.959 231.895 877.769 229.086 877.683C227.765 875.773 230.322 877.114 230.418 873.109C230.575 866.57 230.855 859.559 230.695 853.044C230.572 848.005 231.129 845.984 227.703 842.665Z" fill="#394A5A"></path>
<path d="M553.82 626.162C566.679 626.101 579.531 626.169 592.383 626.371C589.101 629.763 584.668 634.637 581.288 637.723C572.881 638.102 562.564 638.353 554.169 637.894C554.451 634.875 554.353 629.126 553.82 626.162Z" fill="#394A5A"></path>
<path d="M373.75 626.335C386.458 626.09 399.17 626.059 411.879 626.243L411.942 638.061C402.977 638.152 394.011 638.085 385.048 637.852C381.875 635.085 376.864 629.543 373.75 626.335Z" fill="#394A5A"></path>
<path d="M378.006 842.664C381.79 845.083 383.771 869.667 388.345 876.861L387.842 877.565C385.892 877.749 380.457 878.539 379.195 877.192L380.518 875.355C380.909 873.206 380.081 871.13 379.476 868.98C375.905 868.864 373.904 868.369 371.107 870.512C370.544 872.961 371.385 873.831 372.222 876.604L371.65 877.474C369.12 877.719 368.541 877.762 366.037 877.517C365.449 875.594 367.872 873.665 368.213 871.547C369.061 866.275 375.435 847.979 373.483 843.87L373.831 842.939C375.24 842.805 376.596 842.744 378.006 842.664ZM375.656 854.055C374.666 857.618 373.102 861.292 373.648 864.696C374.999 865.927 375.089 865.609 377.11 866.087L378.33 864.855C378.207 862.614 377.051 855.427 375.656 854.055Z" fill="#394A5A"></path>
<path d="M686.439 842.7C690.45 842.535 701.049 842.211 704.545 842.89C704.031 843.784 702.99 845.909 703.051 846.87C703.486 853.606 702.408 868.644 703.247 874.418C703.945 875.434 704.355 876.071 704.955 877.149L704.031 877.834C701.698 877.877 698.857 878.073 696.622 877.59C698.103 873.677 697.583 852.552 697.577 846.95C696.732 846.025 696.689 846.307 695.183 845.786C688.441 847.734 695.446 869.979 687.376 877.749C684.792 878.563 686.066 878.508 683.402 877.89C681.008 875.52 680.904 873.542 683.053 870.769C686.145 870.285 683.622 871.607 686.751 872.336C688.588 867.45 689.188 860.751 689.341 855.534C689.507 850.048 690.37 846.803 686.439 842.7Z" fill="#394A5A"></path>
<path d="M858.907 842.816C861.228 842.589 861.541 842.522 863.812 842.754C866.892 846.054 869.004 869.194 873.603 877.172C872.145 878.311 866.813 878.219 865.472 876.633C866.01 873.156 865.876 872.365 864.97 868.955L857.512 869.163C856.655 872.286 857.407 875.862 856.22 877.607C854.524 877.656 852.846 877.944 851.438 877.148C854.897 869.384 857.909 854.664 859.587 845.92C858.828 844.396 858.693 844.463 858.907 842.816ZM861.215 852.742C860.272 856.747 858.839 860.678 859.219 864.584C860.511 865.956 860.45 865.558 862.642 866.041L863.744 864.835C863.53 862.282 862.262 854.959 861.215 852.742Z" fill="#394A5A"></path>
<path d="M323.621 576.932C331.888 574.667 413.143 575.304 421.498 576.761C426.172 576.804 429.215 576.926 433.845 577.441C426.502 578.518 421.751 578.941 414.334 578.751C408.643 579.4 400.896 579.32 395.043 579.455C376.047 579.896 356.765 578.99 337.746 578.341C334.415 578.328 326.021 578.788 323.621 576.932Z" fill="#394A5A"></path>
<path d="M421.498 576.758C426.173 576.801 429.215 576.923 433.845 577.437C426.502 578.515 421.751 578.938 414.334 578.748L410.133 578.27C411.575 577.529 419.515 576.905 421.498 576.758Z" fill="#394A5A"></path>
<path d="M323.621 576.934C328.14 577.13 336.13 576.616 339.675 577.296L339.877 577.81L337.746 578.343C334.415 578.33 326.021 578.79 323.621 576.934Z" fill="#394A5A"></path>
<path d="M544.954 576.751C548.719 576.2 563.139 575.722 567.242 575.734C581.41 575.777 601.359 574.479 615.167 576.163C619.655 576.132 639.622 575.82 642.469 577.228C639.12 578.453 633.971 578.214 630.309 578.153C615.265 579.947 592.867 579.175 577.406 579.469C572.452 579.561 559.098 579.304 554.591 578.759C550.66 578.888 539.872 578.998 536.73 577.192C539.229 576.536 542.309 576.738 544.954 576.751Z" fill="#394A5A"></path>
<path d="M615.168 576.16C619.656 576.129 639.623 575.817 642.47 577.225C639.121 578.45 633.972 578.211 630.31 578.15C625.559 578.064 616.258 576.943 610.82 576.588L615.168 576.16Z" fill="#394A5A"></path>
<path d="M554.591 578.758C550.66 578.887 539.872 578.997 536.73 577.191C539.229 576.535 542.309 576.738 544.954 576.75C547.268 576.891 559.288 577.442 560.414 578.201C558.357 578.483 556.667 578.617 554.591 578.758Z" fill="#394A5A"></path>
<path d="M660.133 842.647L677.308 842.555V851.819C675.514 849.198 672.74 843.914 668.846 845.91C666.929 848.549 666.966 855.793 669.997 857.862C672.74 857.348 671.993 855.401 674.142 855.131C674.583 858.499 674.4 860.452 674.216 863.783L673.64 864.187C672.385 862.271 672.122 861.622 670.236 860.263L669.281 860.458C667.34 863.036 667.744 866.324 667.774 869.521C667.756 871.027 667.848 871.719 668.032 873.219C669.685 875.007 668.705 874.499 671.02 874.915C675.526 873.525 676.12 871.994 678.533 868.094C678.171 871.296 678.043 874.572 677.859 877.799C674.559 877.885 663.17 878.234 660.966 877.003C662.111 875.08 662.943 872.184 662.686 869.986C661.896 863.159 664.707 847.502 660.133 842.647Z" fill="#394A5A"></path>
<path d="M56.1489 861.279C57.191 857.942 59.9727 849.211 60.4314 845.396C60.7026 843.143 58.8841 846.216 59.0824 842.855C61.9695 842.371 63.698 842.598 66.5911 842.757L66.7889 843.443C62.6687 847.502 61.7711 853.656 60.1191 859.467C58.8467 863.9 56.1103 876.758 51.5009 878.111C50.1073 878.528 48.5986 878.264 47.4235 877.407C46.0899 876.44 45.834 875.283 45.6546 873.825C46.5681 871.266 45.842 872.337 48.0034 870.556L49.1766 870.837L50.8671 873.709L51.8181 873.495C55.0908 868.712 45.8132 846.272 41.4297 842.702C43.8734 842.616 50.4698 842.187 52.3624 843.204C50.0712 847.551 54.4461 856.124 56.1489 861.279Z" fill="#394A5A"></path>
<path d="M213.179 842.125C215.699 842.437 218.645 842.578 220.858 843.686C222.63 846.295 221.861 850.691 221.71 854.089C219.955 850.097 218.526 845.205 213.335 845.578C207.097 849.718 206.571 871.405 214.403 874.577C216.819 874.559 217.012 874.277 218.964 872.942C219.951 871.54 219.983 871.13 221.484 870.438C223.351 873.438 220.248 877.112 217.876 877.761C199.31 882.843 196.869 846.717 213.179 842.125Z" fill="#394A5A"></path>
<path d="M731.793 375.469C737.212 381.049 733.771 384.121 736.263 386.793C738.706 400.382 734.108 443.026 729.809 456.415C728.597 453.244 730.274 451.088 729.411 447.685L728.419 450.062L727.574 450.193C728.591 441.84 730.464 433.452 731.456 424.911C733.44 407.773 732.932 392.573 731.793 375.469Z" fill="#B38334"></path>
<path d="M837.93 842.148C851.682 843.171 847.2 850.959 843.539 858.932C849.858 867.198 851.958 872.494 840.906 878.115C833.546 881.863 829.009 873.192 832.046 869.88L832.817 870.559C834.795 873.621 836.117 875.035 839.828 874.607C841.157 873.56 841.383 873.309 841.928 871.906C845.461 862.783 837.593 862.275 836.264 859.122C838.212 856.531 841.775 855.821 841.885 851.786C841.989 848.125 841.389 845.443 837.146 845.498C834.899 846.679 834.293 848.553 832.707 850.819L831.562 850.323C829.835 845.639 833.974 842.987 837.93 842.148Z" fill="#394A5A"></path>
<path d="M526.019 842.125C528.432 842.456 530.961 842.584 533.067 843.711C534.022 845.217 534.028 845.309 533.985 847.109L533.857 853.618C532.173 849.993 530.679 845.572 525.964 845.683C519.474 848.793 519.363 871.461 526.834 874.681C529.675 874.522 528.683 874.681 531.31 872.973C532.124 871.565 532.106 871.228 533.459 870.42C538.431 878.667 518.861 883.749 516.112 868.277C514.441 858.872 514.312 844.942 526.019 842.125Z" fill="#394A5A"></path>
<path d="M436.216 419.455C446.395 419.299 456.577 419.278 466.757 419.394C466.841 422.415 467.035 424.668 466.519 427.664L465.565 428.198C455.203 428.094 444.966 428.356 434.645 428.308C436.33 423.812 436.257 424.171 436.216 419.455Z" fill="#394A5A"></path>
<path d="M539.167 842.562L558.069 842.587L558.02 852.862C556.814 850.149 556.128 847.669 553.434 846.5L552.356 846.947C550.097 851.19 550.924 869.381 551.438 874.586C552.124 875.456 552.46 875.958 553.067 876.87L552.509 877.782C549.227 878.493 547.629 877.991 544.721 876.447C546.111 871.904 547.409 849.861 544.427 846.634L543.049 846.696C540.857 848.232 540.19 850.082 538.91 852.476L539.167 842.562Z" fill="#394A5A"></path>
<path d="M637.882 842.578H656.411C656.38 845.75 656.49 849.154 656.539 852.344L655.198 850.067C654.078 848.156 653.398 846.227 650.869 846.797C648.677 850.471 649.785 869.667 649.841 875.073C651.237 876.506 651.034 875.728 651.102 877.29C648.536 878.527 645.42 877.786 642.775 877.075C645.205 874.008 645.083 847.819 643.338 846.062L641.868 846.27C639.799 847.96 638.874 850.416 637.625 852.865L637.882 842.578Z" fill="#394A5A"></path>
<path d="M467.996 861.42C467.955 864.96 467.501 871.995 468.754 875.246C469.415 876.967 468.987 874.591 469.274 877.083C467.401 878.583 463.008 878.687 461.301 876.93C463.041 871.977 463.573 848.464 461.248 843.994L460.719 842.996C462.224 842.47 468.699 842.249 469.856 843.161C467.063 847.246 468.001 852.285 468.084 857.612L475.906 857.722L475.765 861.384L467.996 861.42Z" fill="#394A5A"></path>
<path d="M483.294 894.891C486.056 902.471 487.128 905.245 493.704 910.406C487.703 915.097 486.185 917.466 483.521 924.759C481.072 918.74 479.633 915.244 474.159 911.227L473.418 910.78C473.436 909.592 478.335 905.214 479.804 903.653C481.464 900.15 482.1 898.656 483.294 894.891Z" fill="#B38334"></path>
<path d="M479.804 903.651L481.868 902.727C484.531 904.704 485.529 907.221 483.123 909.903C481.06 912.205 476.908 911.47 474.159 911.225L473.418 910.778C473.436 909.591 478.335 905.213 479.804 903.651Z" fill="#B38334"></path>
<path d="M475.904 857.722C475.996 855.279 474.998 843.412 475.488 842.757C478.28 842.445 479.112 842.371 481.898 842.518C483.57 845.537 479.486 871.805 483.074 876.458C483.209 876.813 483.337 877.175 483.472 877.53C481.317 878.32 478.408 878.026 476.039 877.977C474.802 875.785 476.406 866.429 475.763 861.383L475.904 857.722Z" fill="#394A5A"></path>
<path d="M388.738 642.06C394.798 641.864 406.466 641.356 412.149 642.115C412.127 645.911 412.073 649.707 411.986 653.51H399.074C396.108 650.644 391.63 645.287 388.738 642.06Z" fill="#394A5A"></path>
<path d="M554.071 641.857C561.847 641.728 569.624 641.783 577.4 642.022C574.436 645.334 570.046 650.545 566.948 653.49C562.631 653.503 558.021 653.594 553.734 653.484C554.561 650.704 554.285 644.79 554.071 641.857Z" fill="#394A5A"></path>
<path d="M780.938 842.596C783.968 842.541 787.434 842.302 790.361 842.878C787.746 848.915 788.383 854.824 788.395 861.479C788.408 866.543 787.459 873.75 790.796 877.626C787.789 877.736 784.085 878.208 781.421 877.154C781.905 876.132 782.891 873.603 782.897 872.629C782.952 865.478 784.789 847.88 780.938 842.596Z" fill="#394A5A"></path>
<path d="M477.207 50.2506C475.137 42.2876 481.707 37.5845 489.11 41.2816C493.004 45.9865 493.151 53.8142 486.465 55.0792C484.101 54.4945 484.995 54.2208 483.385 55.0695C483.33 55.5011 483.03 57.8444 482.938 58.0967C482.883 57.3276 482.675 56.6284 482.497 55.8624C479.815 53.7554 478.884 53.2981 477.207 50.2506Z" fill="#B38334"></path>
<path d="M489.11 41.2812C493.005 45.9862 493.151 53.8139 486.465 55.0789C484.102 54.4942 484.996 54.2205 483.385 55.0691C483.33 55.5008 483.03 57.8441 482.938 58.0964C482.883 57.3273 482.675 56.628 482.497 55.8621C479.815 53.7551 478.885 53.2977 477.207 50.2503C484.328 51.5772 489.214 48.8328 489.11 41.2812Z" fill="#B38334"></path>
<path d="M574.192 585.673C582.127 584.742 597.441 585.428 605.609 585.471C611.812 585.502 624.094 585.649 629.966 586.347L630.003 587.069C627.346 587.945 616.728 587.92 613.324 588C608.009 588.441 560.513 589.451 558.449 586.836C562.962 585.967 569.428 585.906 574.192 585.673Z" fill="#394A5A"></path>
<path d="M354.659 585.698C371.441 584.945 391.658 585.037 408.277 586.647C406.095 588.282 395.601 588.404 392.642 588.496C387.075 588.557 339.541 588.759 336.984 586.647C340.087 585.704 350.834 585.777 354.659 585.698Z" fill="#394A5A"></path>
<path d="M516.367 317.92L530.694 317.906L527.125 323.69C514.744 324.123 499.908 323.768 487.398 323.452L488.335 322.101C493.846 321.799 501.5 321.402 506.08 318.438L516.367 317.92Z" fill="#B38334"></path>
<path d="M302.27 570.875C309.757 578.651 317.57 586.103 325.688 593.224C329.543 596.555 336.969 600.676 338.243 604.515L337.776 605.801L336.713 606.089C324.818 597.633 313.763 588.05 303.699 577.476L305.087 576.637C304.714 574.543 303.137 573.508 302.27 570.875Z" fill="#B38334"></path>
<path d="M540.196 444.775C546.619 444.771 567.726 444.413 572.667 445.335C573.457 447.145 573.126 447.925 573.028 450.063C563.635 449.73 549.706 450.114 540.925 449.266C539.792 447.699 540.221 447.161 540.196 444.775Z" fill="white"></path>
<path d="M393.228 444.705C399.932 444.64 419.238 444.205 424.998 444.971C426.108 446.767 425.724 447.106 425.831 449.57C418.452 449.605 400.286 450.146 393.763 449.371C392.818 447.574 393.163 446.955 393.228 444.705Z" fill="white"></path>
<path d="M393.473 454.637C399.195 454.539 422.547 453.345 425.601 455.966C425.872 458.444 426.19 457.409 424.929 459.258C416.037 459.301 401.002 461.222 393.533 457.832C392.774 455.941 392.946 456.957 393.473 454.637Z" fill="white"></path>
<path d="M552.676 454.66C554.734 454.652 556.791 454.614 558.848 454.546C563.037 454.434 570.231 453.59 573.115 456.322L572.993 457.659C571.101 459.454 565.676 459.553 562.914 459.711C558.003 459.494 541.606 461.321 540.008 456.375C542.188 454.25 549.352 454.717 552.676 454.66Z" fill="white"></path>
<path d="M256.496 511.212C257.114 509.798 256.809 510.251 257.889 509.094L260.171 510.484C267.458 522.656 272.747 532.931 280.95 544.871C279.694 544.473 279.104 544.167 278.005 543.438C277.84 544.718 277.807 544.969 277.785 546.285C268.483 533.249 263.837 525.491 256.496 511.212Z" fill="#B38334"></path>
<path d="M277.785 546.285C277.808 544.968 277.84 544.717 278.006 543.438C279.104 544.166 279.695 544.472 280.951 544.87C287.783 553.761 294.893 562.431 302.271 570.875C303.139 573.508 304.716 574.543 305.088 576.637L303.7 577.476C293.553 567.477 285.918 557.839 277.785 546.285Z" fill="#B38334"></path>
<path d="M482.658 808.555C484.06 809.222 488.481 815.749 491.022 818.254C486.424 822.319 485.72 823.868 483.271 829.514C481.415 825.607 480.503 823.317 477.748 819.968C476.064 818.915 476.498 819.619 475.855 818.107C477.723 814.745 480.448 812.584 482.658 808.555Z" fill="#B38334"></path>
<path d="M482.658 808.555C484.011 812.124 485.236 814.714 483.705 818.364C481.403 820.556 480.699 820.446 477.748 819.968C476.064 818.915 476.498 819.619 475.855 818.107C477.723 814.745 480.448 812.584 482.658 808.555Z" fill="#B38334"></path>
<path d="M727.781 348.783C728.841 347.652 727.947 344.853 728.485 341.906C729.496 343.077 729.073 342.422 729.3 344.253L730.445 344.209C733.121 356.234 736.494 374.516 736.262 386.794C733.77 384.122 737.211 381.05 731.792 375.47C730.873 366.637 729.232 357.57 727.781 348.783Z" fill="#B38334"></path>
<path d="M247.766 491.112C248.443 489.691 247.981 490.254 249.068 489.354L249.078 488.625L249.775 489.318L250.849 489.251C253.562 495.514 257.946 504.448 260.17 510.485L257.889 509.095C256.809 510.252 257.114 509.799 256.496 511.213C253.306 504.943 250.265 497.663 247.766 491.112Z" fill="#B38334"></path>
<path d="M293.634 833.039C296.989 833.553 296.254 833.517 297.799 836.443C302.017 838.819 300.986 834.196 304.685 833.217C306.245 834.6 305.569 833.768 306.181 836.309C302.163 842.383 292.911 841.942 293.634 833.039Z" fill="#394A5A"></path>
<path d="M800.73 833.102C804.061 833.512 803.449 833.91 805.213 836.812C806.988 837.522 806.125 837.529 807.894 836.788C808.77 835.312 809.266 834.13 810.68 833.2C812.34 833.683 811.562 833.304 812.823 834.773C810.074 842.672 800.853 842.605 800.73 833.102Z" fill="#394A5A"></path>
<path d="M581.094 425.016C581.271 422.028 580.794 421.937 582.226 419.859C584.278 421.041 583.837 423.174 583.812 425.373L581.094 425.016Z" fill="#394A5A"></path>
</svg>